<mxfile host="app.diagrams.net" agent="Mozilla/5.0 (Windows NT 10.0; Win64; x64) AppleWebKit/537.36 (KHTML, like Gecko) Chrome/137.0.0.0 Safari/537.36" version="27.1.6" pages="6">
  <diagram name="Componentes" id="Hr5Lzy8-_08L1F_6YtW8">
    <mxGraphModel dx="2572" dy="529" grid="1" gridSize="10" guides="1" tooltips="1" connect="1" arrows="1" fold="1" page="1" pageScale="1" pageWidth="850" pageHeight="1100" math="0" shadow="0">
      <root>
        <mxCell id="ibalX00g9vt64yQpozJs-0" />
        <mxCell id="ibalX00g9vt64yQpozJs-1" parent="ibalX00g9vt64yQpozJs-0" />
        <mxCell id="ibalX00g9vt64yQpozJs-2" value="&lt;div&gt;&lt;br&gt;&lt;/div&gt;" style="html=1;dropTarget=0;whiteSpace=wrap;" parent="ibalX00g9vt64yQpozJs-1" vertex="1">
          <mxGeometry x="-590" y="200" width="450" height="540" as="geometry" />
        </mxCell>
        <mxCell id="ibalX00g9vt64yQpozJs-3" value="" style="shape=module;jettyWidth=8;jettyHeight=4;" parent="ibalX00g9vt64yQpozJs-2" vertex="1">
          <mxGeometry x="1" width="20" height="20" relative="1" as="geometry">
            <mxPoint x="-27" y="7" as="offset" />
          </mxGeometry>
        </mxCell>
        <mxCell id="ibalX00g9vt64yQpozJs-13" value="&lt;div&gt;&lt;br&gt;&lt;/div&gt;" style="html=1;dropTarget=0;whiteSpace=wrap;" parent="ibalX00g9vt64yQpozJs-1" vertex="1">
          <mxGeometry x="-1000" y="200" width="230" height="280" as="geometry" />
        </mxCell>
        <mxCell id="ibalX00g9vt64yQpozJs-14" value="" style="shape=module;jettyWidth=8;jettyHeight=4;" parent="ibalX00g9vt64yQpozJs-13" vertex="1">
          <mxGeometry x="1" width="20" height="20" relative="1" as="geometry">
            <mxPoint x="-27" y="7" as="offset" />
          </mxGeometry>
        </mxCell>
        <mxCell id="ibalX00g9vt64yQpozJs-4" value="&lt;div&gt;&lt;br&gt;&lt;/div&gt;" style="html=1;dropTarget=0;whiteSpace=wrap;" parent="ibalX00g9vt64yQpozJs-1" vertex="1">
          <mxGeometry x="-1000" y="605" width="230" height="150" as="geometry" />
        </mxCell>
        <mxCell id="ibalX00g9vt64yQpozJs-5" value="" style="shape=module;jettyWidth=8;jettyHeight=4;" parent="ibalX00g9vt64yQpozJs-4" vertex="1">
          <mxGeometry x="1" width="20" height="20" relative="1" as="geometry">
            <mxPoint x="-27" y="7" as="offset" />
          </mxGeometry>
        </mxCell>
        <mxCell id="UevffBtBP-o2EY0w1ZIJ-2" value="" style="rounded=0;orthogonalLoop=1;jettySize=auto;html=1;" parent="ibalX00g9vt64yQpozJs-1" source="ibalX00g9vt64yQpozJs-6" target="Fhr26TY9afIAGjRqi2eX-6" edge="1">
          <mxGeometry relative="1" as="geometry">
            <mxPoint x="-790" y="420" as="targetPoint" />
          </mxGeometry>
        </mxCell>
        <mxCell id="CGJvHUNieDKuwBb52tQV-4" style="edgeStyle=orthogonalEdgeStyle;rounded=0;orthogonalLoop=1;jettySize=auto;html=1;startArrow=none;startFill=0;" parent="ibalX00g9vt64yQpozJs-1" source="ibalX00g9vt64yQpozJs-6" target="YT_dUnnxunZ9NrD1JXKK-0" edge="1">
          <mxGeometry relative="1" as="geometry">
            <Array as="points">
              <mxPoint x="-165" y="460" />
              <mxPoint x="-165" y="491" />
            </Array>
          </mxGeometry>
        </mxCell>
        <mxCell id="M53GRtngGgM_h6OnEpN9-3" style="rounded=0;orthogonalLoop=1;jettySize=auto;html=1;" parent="ibalX00g9vt64yQpozJs-1" source="ibalX00g9vt64yQpozJs-6" target="vuIAr291Dgmtw0vhvdgS-3" edge="1">
          <mxGeometry relative="1" as="geometry" />
        </mxCell>
        <mxCell id="ibalX00g9vt64yQpozJs-6" value="&lt;div&gt;«Microservicio»&lt;b&gt;&lt;br&gt;&lt;/b&gt;&lt;/div&gt;&lt;div&gt;&lt;b&gt;device-limits-mgt&lt;/b&gt;&lt;/div&gt;&lt;div&gt;&lt;b&gt;+ LMV1&lt;/b&gt;&lt;/div&gt;&lt;div&gt;&lt;br&gt;&lt;/div&gt;&lt;div&gt;&lt;b&gt;&lt;br&gt;&lt;/b&gt;&lt;/div&gt;&lt;div&gt;&lt;b&gt;&lt;br&gt;&lt;/b&gt;&lt;/div&gt;&lt;div&gt;&lt;b&gt;&lt;br&gt;&lt;/b&gt;&lt;/div&gt;&lt;div&gt;&lt;b&gt;&lt;br&gt;&lt;/b&gt;&lt;/div&gt;&lt;div&gt;&lt;b&gt;&lt;br&gt;&lt;/b&gt;&lt;/div&gt;&lt;div&gt;&lt;b&gt;&lt;br&gt;&lt;/b&gt;&lt;/div&gt;&lt;div&gt;&lt;b&gt;&lt;br&gt;&lt;/b&gt;&lt;/div&gt;" style="html=1;dropTarget=0;whiteSpace=wrap;fillColor=#d5e8d4;strokeColor=#82b366;" parent="ibalX00g9vt64yQpozJs-1" vertex="1">
          <mxGeometry x="-440" y="270" width="180" height="200" as="geometry" />
        </mxCell>
        <mxCell id="ibalX00g9vt64yQpozJs-7" value="" style="shape=module;jettyWidth=8;jettyHeight=4;" parent="ibalX00g9vt64yQpozJs-6" vertex="1">
          <mxGeometry x="1" width="20" height="20" relative="1" as="geometry">
            <mxPoint x="-27" y="7" as="offset" />
          </mxGeometry>
        </mxCell>
        <mxCell id="ibalX00g9vt64yQpozJs-10" value="" style="html=1;verticalAlign=bottom;endArrow=block;rounded=0;" parent="ibalX00g9vt64yQpozJs-1" source="1r6Sa9GpILCDG1rnr68h-0" target="Xr6SCrK0ljmYc6vUD68w-12" edge="1">
          <mxGeometry width="80" relative="1" as="geometry">
            <mxPoint x="-270" y="523" as="sourcePoint" />
            <mxPoint x="165" y="408" as="targetPoint" />
            <mxPoint as="offset" />
          </mxGeometry>
        </mxCell>
        <mxCell id="ibalX00g9vt64yQpozJs-15" value="" style="rounded=0;whiteSpace=wrap;html=1;fillColor=#d5e8d4;strokeColor=#82b366;" parent="ibalX00g9vt64yQpozJs-1" vertex="1">
          <mxGeometry x="-1301" y="50" width="50" height="20" as="geometry" />
        </mxCell>
        <mxCell id="ibalX00g9vt64yQpozJs-16" value="Componente Nuevo" style="text;html=1;strokeColor=none;fillColor=none;align=left;verticalAlign=middle;whiteSpace=wrap;rounded=0;" parent="ibalX00g9vt64yQpozJs-1" vertex="1">
          <mxGeometry x="-1241" y="50" width="110" height="20" as="geometry" />
        </mxCell>
        <mxCell id="ibalX00g9vt64yQpozJs-17" value="" style="rounded=0;whiteSpace=wrap;html=1;fillColor=#fff2cc;strokeColor=#d6b656;" parent="ibalX00g9vt64yQpozJs-1" vertex="1">
          <mxGeometry x="-1301" y="80" width="50" height="20" as="geometry" />
        </mxCell>
        <mxCell id="ibalX00g9vt64yQpozJs-18" value="Componente reutilizado" style="text;html=1;strokeColor=none;fillColor=none;align=left;verticalAlign=middle;whiteSpace=wrap;rounded=0;" parent="ibalX00g9vt64yQpozJs-1" vertex="1">
          <mxGeometry x="-1241" y="80" width="130" height="20" as="geometry" />
        </mxCell>
        <mxCell id="ibalX00g9vt64yQpozJs-19" value="" style="rounded=0;whiteSpace=wrap;html=1;fillColor=#e1d5e7;strokeColor=#9673a6;" parent="ibalX00g9vt64yQpozJs-1" vertex="1">
          <mxGeometry x="-1301" y="141" width="50" height="20" as="geometry" />
        </mxCell>
        <mxCell id="ibalX00g9vt64yQpozJs-20" value="Componentes / estructuras en infraestructura transversal" style="text;html=1;strokeColor=none;fillColor=none;align=left;verticalAlign=middle;whiteSpace=wrap;rounded=0;" parent="ibalX00g9vt64yQpozJs-1" vertex="1">
          <mxGeometry x="-1241" y="141" width="350" height="20" as="geometry" />
        </mxCell>
        <mxCell id="ibalX00g9vt64yQpozJs-21" value="&lt;div&gt;«Log component»&lt;b&gt;&lt;br&gt;&lt;/b&gt;&lt;/div&gt;&lt;div&gt;&lt;b&gt;Kafka Cluster&lt;/b&gt;&lt;/div&gt;" style="html=1;dropTarget=0;whiteSpace=wrap;fillColor=#e1d5e7;strokeColor=#9673a6;" parent="ibalX00g9vt64yQpozJs-1" vertex="1">
          <mxGeometry x="-70" y="322.5" width="180" height="90" as="geometry" />
        </mxCell>
        <mxCell id="ibalX00g9vt64yQpozJs-22" value="" style="shape=module;jettyWidth=8;jettyHeight=4;" parent="ibalX00g9vt64yQpozJs-21" vertex="1">
          <mxGeometry x="1" width="20" height="20" relative="1" as="geometry">
            <mxPoint x="-27" y="7" as="offset" />
          </mxGeometry>
        </mxCell>
        <mxCell id="mw78Khjm8ICX6KQG7Wsu-0" value="«Canales Santander MX»" style="text;html=1;align=center;verticalAlign=middle;whiteSpace=wrap;rounded=0;" parent="ibalX00g9vt64yQpozJs-1" vertex="1">
          <mxGeometry x="-955" y="605" width="140" height="30" as="geometry" />
        </mxCell>
        <mxCell id="mw78Khjm8ICX6KQG7Wsu-1" value="&lt;div&gt;«Plataforma Altair»&lt;b&gt;&lt;br&gt;&lt;/b&gt;&lt;/div&gt;&lt;div&gt;&lt;b&gt;Terminal Financiero&lt;/b&gt;&lt;/div&gt;&lt;div&gt;&lt;b&gt;CENTEL&lt;/b&gt;&lt;/div&gt;&lt;div&gt;&lt;b&gt;SuperMovil&lt;/b&gt;&lt;/div&gt;&lt;div&gt;&lt;b&gt;IVR&lt;/b&gt;&lt;/div&gt;&lt;div&gt;&lt;b&gt;FMP&lt;/b&gt;&lt;/div&gt;" style="html=1;dropTarget=0;whiteSpace=wrap;fillColor=#fff2cc;strokeColor=#d6b656;" parent="ibalX00g9vt64yQpozJs-1" vertex="1">
          <mxGeometry x="-975" y="645" width="180" height="90" as="geometry" />
        </mxCell>
        <mxCell id="mw78Khjm8ICX6KQG7Wsu-2" value="" style="shape=module;jettyWidth=8;jettyHeight=4;" parent="mw78Khjm8ICX6KQG7Wsu-1" vertex="1">
          <mxGeometry x="1" width="20" height="20" relative="1" as="geometry">
            <mxPoint x="-27" y="7" as="offset" />
          </mxGeometry>
        </mxCell>
        <mxCell id="mw78Khjm8ICX6KQG7Wsu-7" value="" style="html=1;verticalAlign=bottom;endArrow=block;rounded=0;edgeStyle=orthogonalEdgeStyle;exitX=1;exitY=0.5;exitDx=0;exitDy=0;" parent="ibalX00g9vt64yQpozJs-1" source="ibalX00g9vt64yQpozJs-4" target="CGJvHUNieDKuwBb52tQV-0" edge="1">
          <mxGeometry x="0.0016" width="80" relative="1" as="geometry">
            <mxPoint x="-705" y="595" as="sourcePoint" />
            <mxPoint x="-350" y="439" as="targetPoint" />
            <mxPoint as="offset" />
          </mxGeometry>
        </mxCell>
        <mxCell id="CGJvHUNieDKuwBb52tQV-2" style="edgeStyle=orthogonalEdgeStyle;rounded=0;orthogonalLoop=1;jettySize=auto;html=1;" parent="ibalX00g9vt64yQpozJs-1" source="KAskMvH-FdpNS457HAVK-10" target="CGJvHUNieDKuwBb52tQV-0" edge="1">
          <mxGeometry relative="1" as="geometry" />
        </mxCell>
        <mxCell id="WAyySOAWvUpvXSL9j0dH-3" style="edgeStyle=orthogonalEdgeStyle;rounded=0;orthogonalLoop=1;jettySize=auto;html=1;" parent="ibalX00g9vt64yQpozJs-1" source="KAskMvH-FdpNS457HAVK-10" target="WAyySOAWvUpvXSL9j0dH-2" edge="1">
          <mxGeometry relative="1" as="geometry">
            <Array as="points">
              <mxPoint x="-480" y="760" />
              <mxPoint x="-480" y="760" />
            </Array>
            <mxPoint x="-614.3199999999999" y="850.000909090909" as="sourcePoint" />
          </mxGeometry>
        </mxCell>
        <mxCell id="uwjMrfqby6ekMZz9i17e-2" style="edgeStyle=orthogonalEdgeStyle;rounded=0;orthogonalLoop=1;jettySize=auto;html=1;" parent="ibalX00g9vt64yQpozJs-1" source="mw78Khjm8ICX6KQG7Wsu-5" target="uwjMrfqby6ekMZz9i17e-0" edge="1">
          <mxGeometry relative="1" as="geometry" />
        </mxCell>
        <mxCell id="mw78Khjm8ICX6KQG7Wsu-5" value="&lt;div&gt;«Microservicio»&lt;b&gt;&lt;br&gt;&lt;/b&gt;&lt;/div&gt;&lt;div&gt;&lt;b&gt;Starter (splitter)&lt;/b&gt;&lt;/div&gt;&lt;div&gt;&lt;b&gt;&lt;br&gt;&lt;/b&gt;&lt;/div&gt;&lt;div&gt;&lt;b&gt;&lt;br&gt;&lt;/b&gt;&lt;/div&gt;" style="html=1;dropTarget=0;whiteSpace=wrap;fillColor=#fff2cc;strokeColor=#d6b656;" parent="ibalX00g9vt64yQpozJs-1" vertex="1">
          <mxGeometry x="-340" y="630" width="180" height="90" as="geometry" />
        </mxCell>
        <mxCell id="mw78Khjm8ICX6KQG7Wsu-6" value="" style="shape=module;jettyWidth=8;jettyHeight=4;" parent="mw78Khjm8ICX6KQG7Wsu-5" vertex="1">
          <mxGeometry x="1" width="20" height="20" relative="1" as="geometry">
            <mxPoint x="-27" y="7" as="offset" />
          </mxGeometry>
        </mxCell>
        <mxCell id="YT_dUnnxunZ9NrD1JXKK-2" style="edgeStyle=orthogonalEdgeStyle;rounded=0;orthogonalLoop=1;jettySize=auto;html=1;startArrow=none;startFill=0;" parent="ibalX00g9vt64yQpozJs-1" source="mw78Khjm8ICX6KQG7Wsu-5" target="YT_dUnnxunZ9NrD1JXKK-0" edge="1">
          <mxGeometry relative="1" as="geometry">
            <mxPoint x="-290" y="513" as="sourcePoint" />
            <Array as="points">
              <mxPoint x="20" y="670" />
            </Array>
          </mxGeometry>
        </mxCell>
        <mxCell id="mw78Khjm8ICX6KQG7Wsu-16" value="&lt;div&gt;«Capa de Integración»&lt;/div&gt;" style="text;html=1;align=center;verticalAlign=middle;whiteSpace=wrap;rounded=0;" parent="ibalX00g9vt64yQpozJs-1" vertex="1">
          <mxGeometry x="-421" y="200" width="140" height="30" as="geometry" />
        </mxCell>
        <mxCell id="k2TCZtdQKbIll1BBhbGv-0" value="&lt;div&gt;«Plataforma PLARD»&lt;/div&gt;" style="text;html=1;align=center;verticalAlign=middle;whiteSpace=wrap;rounded=0;" parent="ibalX00g9vt64yQpozJs-1" vertex="1">
          <mxGeometry x="-945" y="200" width="120" height="30" as="geometry" />
        </mxCell>
        <mxCell id="CGJvHUNieDKuwBb52tQV-0" value="&lt;div&gt;«Message Queue»&lt;b&gt;&lt;br&gt;&lt;/b&gt;&lt;/div&gt;&lt;div&gt;&lt;b&gt;MQ Open&lt;/b&gt;&lt;/div&gt;" style="rounded=0;whiteSpace=wrap;html=1;" parent="ibalX00g9vt64yQpozJs-1" vertex="1">
          <mxGeometry x="-740" y="650" width="120" height="60" as="geometry" />
        </mxCell>
        <mxCell id="WAyySOAWvUpvXSL9j0dH-0" value="" style="html=1;dropTarget=0;whiteSpace=wrap;" parent="ibalX00g9vt64yQpozJs-1" vertex="1">
          <mxGeometry x="-653.37" y="955" width="350" height="145" as="geometry" />
        </mxCell>
        <mxCell id="WAyySOAWvUpvXSL9j0dH-1" value="" style="shape=module;jettyWidth=8;jettyHeight=4;" parent="WAyySOAWvUpvXSL9j0dH-0" vertex="1">
          <mxGeometry x="1" width="20" height="20" relative="1" as="geometry">
            <mxPoint x="-27" y="7" as="offset" />
          </mxGeometry>
        </mxCell>
        <mxCell id="WAyySOAWvUpvXSL9j0dH-2" value="&lt;div&gt;«Message Queue»&lt;b&gt;&lt;br&gt;&lt;/b&gt;&lt;/div&gt;&lt;div&gt;&lt;b&gt;MQ 390&lt;/b&gt;&lt;/div&gt;" style="rounded=0;whiteSpace=wrap;html=1;" parent="ibalX00g9vt64yQpozJs-1" vertex="1">
          <mxGeometry x="-538.3699999999999" y="800" width="120" height="60" as="geometry" />
        </mxCell>
        <mxCell id="WAyySOAWvUpvXSL9j0dH-8" value="&lt;div&gt;«Mainframe»&lt;/div&gt;" style="text;html=1;align=center;verticalAlign=middle;whiteSpace=wrap;rounded=0;" parent="ibalX00g9vt64yQpozJs-1" vertex="1">
          <mxGeometry x="-545.8699999999999" y="955.0000000000001" width="120" height="30" as="geometry" />
        </mxCell>
        <mxCell id="WAyySOAWvUpvXSL9j0dH-9" value="&lt;div style=&quot;text-align: center;&quot;&gt;&lt;b style=&quot;background-color: transparent; color: light-dark(rgb(0, 0, 0), rgb(255, 255, 255));&quot;&gt;«PAMPA»&lt;/b&gt;&lt;/div&gt;&lt;b&gt;LMV1&lt;/b&gt; (CONSULTA DE LIMITES DE CAJEROS)" style="html=1;dropTarget=0;whiteSpace=wrap;fillColor=#fff2cc;strokeColor=#d6b656;align=left;" parent="ibalX00g9vt64yQpozJs-1" vertex="1">
          <mxGeometry x="-638.37" y="985" width="305" height="95" as="geometry" />
        </mxCell>
        <mxCell id="WAyySOAWvUpvXSL9j0dH-10" value="" style="shape=module;jettyWidth=8;jettyHeight=4;" parent="WAyySOAWvUpvXSL9j0dH-9" vertex="1">
          <mxGeometry x="1" width="20" height="20" relative="1" as="geometry">
            <mxPoint x="-27" y="7" as="offset" />
          </mxGeometry>
        </mxCell>
        <mxCell id="YT_dUnnxunZ9NrD1JXKK-0" value="&lt;div&gt;«Event component»&lt;b&gt;&lt;br&gt;&lt;/b&gt;&lt;/div&gt;&lt;div&gt;&lt;b&gt;Redis Streams&lt;/b&gt;&lt;/div&gt;" style="html=1;dropTarget=0;whiteSpace=wrap;fillColor=#e1d5e7;strokeColor=#9673a6;" parent="ibalX00g9vt64yQpozJs-1" vertex="1">
          <mxGeometry x="-70" y="446" width="180" height="90" as="geometry" />
        </mxCell>
        <mxCell id="YT_dUnnxunZ9NrD1JXKK-1" value="" style="shape=module;jettyWidth=8;jettyHeight=4;" parent="YT_dUnnxunZ9NrD1JXKK-0" vertex="1">
          <mxGeometry x="1" width="20" height="20" relative="1" as="geometry">
            <mxPoint x="-27" y="7" as="offset" />
          </mxGeometry>
        </mxCell>
        <mxCell id="Fhr26TY9afIAGjRqi2eX-6" value="&lt;div&gt;«Service»&lt;b&gt;&lt;br&gt;&lt;/b&gt;&lt;/div&gt;&lt;div&gt;&lt;div style=&quot;&quot;&gt;&lt;b&gt;autorizador-domain-api&lt;/b&gt;&lt;/div&gt;&lt;/div&gt;" style="html=1;dropTarget=0;whiteSpace=wrap;fillColor=#fff2cc;strokeColor=#d6b656;" parent="ibalX00g9vt64yQpozJs-1" vertex="1">
          <mxGeometry x="-975" y="370" width="180" height="90" as="geometry" />
        </mxCell>
        <mxCell id="Fhr26TY9afIAGjRqi2eX-7" value="" style="shape=module;jettyWidth=8;jettyHeight=4;" parent="Fhr26TY9afIAGjRqi2eX-6" vertex="1">
          <mxGeometry x="1" width="20" height="20" relative="1" as="geometry">
            <mxPoint x="-27" y="7" as="offset" />
          </mxGeometry>
        </mxCell>
        <mxCell id="Xr6SCrK0ljmYc6vUD68w-10" value="" style="group;fontColor=#FFFFFF;" parent="ibalX00g9vt64yQpozJs-1" vertex="1" connectable="0">
          <mxGeometry x="-180" y="386.75" width="20" height="20" as="geometry" />
        </mxCell>
        <mxCell id="Xr6SCrK0ljmYc6vUD68w-11" value="" style="ellipse;whiteSpace=wrap;html=1;aspect=fixed;fillColor=#6a00ff;strokeColor=#3700CC;fontColor=#ffffff;" parent="Xr6SCrK0ljmYc6vUD68w-10" vertex="1">
          <mxGeometry width="20" height="20" as="geometry" />
        </mxCell>
        <mxCell id="Xr6SCrK0ljmYc6vUD68w-12" value="ka" style="text;html=1;align=center;verticalAlign=middle;whiteSpace=wrap;rounded=0;fontColor=#FFFFFF;" parent="Xr6SCrK0ljmYc6vUD68w-10" vertex="1">
          <mxGeometry width="20" height="20" as="geometry" />
        </mxCell>
        <mxCell id="Xr6SCrK0ljmYc6vUD68w-13" value="" style="group;fontColor=#FFFFFF;" parent="ibalX00g9vt64yQpozJs-1" vertex="1" connectable="0">
          <mxGeometry x="-120" y="357.5" width="20" height="20" as="geometry" />
        </mxCell>
        <mxCell id="Xr6SCrK0ljmYc6vUD68w-14" value="" style="ellipse;whiteSpace=wrap;html=1;aspect=fixed;fillColor=#6a00ff;strokeColor=#3700CC;fontColor=#ffffff;" parent="Xr6SCrK0ljmYc6vUD68w-13" vertex="1">
          <mxGeometry width="20" height="20" as="geometry" />
        </mxCell>
        <mxCell id="Xr6SCrK0ljmYc6vUD68w-15" value="ka" style="text;html=1;align=center;verticalAlign=middle;whiteSpace=wrap;rounded=0;fontColor=#FFFFFF;" parent="Xr6SCrK0ljmYc6vUD68w-13" vertex="1">
          <mxGeometry width="20" height="20" as="geometry" />
        </mxCell>
        <mxCell id="Xr6SCrK0ljmYc6vUD68w-16" style="edgeStyle=orthogonalEdgeStyle;rounded=0;orthogonalLoop=1;jettySize=auto;html=1;" parent="ibalX00g9vt64yQpozJs-1" source="Xr6SCrK0ljmYc6vUD68w-15" target="ibalX00g9vt64yQpozJs-21" edge="1">
          <mxGeometry relative="1" as="geometry" />
        </mxCell>
        <mxCell id="HCLQA8r3Dd-Hja26W3VV-4" value="" style="verticalLabelPosition=bottom;verticalAlign=top;html=1;shape=mxgraph.basic.star;fillColor=#f0a30a;fontColor=#000000;strokeColor=#BD7000;aspect=fixed;" parent="ibalX00g9vt64yQpozJs-1" vertex="1">
          <mxGeometry x="-1296" width="40" height="38" as="geometry" />
        </mxCell>
        <mxCell id="HCLQA8r3Dd-Hja26W3VV-5" value="Fuera del alcance" style="text;html=1;strokeColor=none;fillColor=none;align=left;verticalAlign=middle;whiteSpace=wrap;rounded=0;" parent="ibalX00g9vt64yQpozJs-1" vertex="1">
          <mxGeometry x="-1241" y="9" width="110" height="20" as="geometry" />
        </mxCell>
        <mxCell id="hjO6V6hpEGbDNPk5ZwKX-18" style="edgeStyle=orthogonalEdgeStyle;rounded=0;orthogonalLoop=1;jettySize=auto;html=1;exitX=0.5;exitY=1;exitDx=0;exitDy=0;" parent="ibalX00g9vt64yQpozJs-1" edge="1">
          <mxGeometry relative="1" as="geometry">
            <mxPoint x="-270.87" y="1145" as="sourcePoint" />
            <mxPoint x="-270.87" y="1145" as="targetPoint" />
          </mxGeometry>
        </mxCell>
        <mxCell id="tE9yIkzxRazClJXOlSwS-3" value="" style="rounded=0;whiteSpace=wrap;html=1;gradientDirection=east;fillColor=#bac8d3;opacity=20;strokeColor=#23445d;sketch=1;curveFitting=1;jiggle=2;shadow=0;glass=0;" parent="ibalX00g9vt64yQpozJs-1" vertex="1">
          <mxGeometry x="-660" width="560" height="60" as="geometry" />
        </mxCell>
        <mxCell id="tE9yIkzxRazClJXOlSwS-4" value="device-limits-mgt" style="text;html=1;align=center;verticalAlign=middle;whiteSpace=wrap;rounded=0;fontFamily=Tahoma;fontSize=20;fontStyle=0;labelBackgroundColor=none;" parent="ibalX00g9vt64yQpozJs-1" vertex="1">
          <mxGeometry x="-660" y="15" width="560" height="30" as="geometry" />
        </mxCell>
        <mxCell id="tE9yIkzxRazClJXOlSwS-11" value="&lt;div style=&quot;text-align: left;&quot;&gt;&lt;span style=&quot;background-color: transparent; color: light-dark(rgb(0, 0, 0), rgb(255, 255, 255)); font-size: 12px; text-align: center;&quot;&gt;(GET)&amp;nbsp;&lt;/span&gt;&lt;span style=&quot;background-color: transparent; font-size: 12px;&quot;&gt;/life-cycle/v4/devices/details&lt;/span&gt;&lt;/div&gt;" style="rounded=0;whiteSpace=wrap;html=1;align=left;fontSize=11;" parent="ibalX00g9vt64yQpozJs-1" vertex="1">
          <mxGeometry x="-1310" y="284" width="300" height="27" as="geometry" />
        </mxCell>
        <mxCell id="tE9yIkzxRazClJXOlSwS-12" value="6" style="rounded=0;whiteSpace=wrap;html=1;fillColor=#bac8d3;strokeColor=#23445d;fontStyle=1" parent="ibalX00g9vt64yQpozJs-1" vertex="1">
          <mxGeometry x="-1350" y="284" width="40" height="27" as="geometry" />
        </mxCell>
        <mxCell id="tE9yIkzxRazClJXOlSwS-18" value="Input" style="rounded=0;whiteSpace=wrap;html=1;fillColor=#bac8d3;strokeColor=#23445d;fontStyle=1" parent="ibalX00g9vt64yQpozJs-1" vertex="1">
          <mxGeometry x="-1301" y="810" width="270" height="20" as="geometry" />
        </mxCell>
        <mxCell id="tE9yIkzxRazClJXOlSwS-20" value="Output" style="rounded=0;whiteSpace=wrap;html=1;fillColor=#bac8d3;strokeColor=#23445d;fontStyle=1" parent="ibalX00g9vt64yQpozJs-1" vertex="1">
          <mxGeometry x="-1031" y="810" width="280" height="20" as="geometry" />
        </mxCell>
        <mxCell id="tE9yIkzxRazClJXOlSwS-21" value="Redis Stream" style="rounded=0;whiteSpace=wrap;html=1;fillColor=#bac8d3;strokeColor=#23445d;fontStyle=1" parent="ibalX00g9vt64yQpozJs-1" vertex="1">
          <mxGeometry x="-1301" y="790" width="550" height="20" as="geometry" />
        </mxCell>
        <mxCell id="uwjMrfqby6ekMZz9i17e-0" value="&lt;div&gt;«Microservicio»&lt;b&gt;&lt;br&gt;&lt;/b&gt;&lt;/div&gt;&lt;div&gt;&lt;b&gt;CardPlaceLocator&lt;/b&gt;&lt;/div&gt;" style="html=1;dropTarget=0;whiteSpace=wrap;fillColor=#fff2cc;strokeColor=#d6b656;" parent="ibalX00g9vt64yQpozJs-1" vertex="1">
          <mxGeometry x="-340" y="790" width="180" height="90" as="geometry" />
        </mxCell>
        <mxCell id="uwjMrfqby6ekMZz9i17e-1" value="" style="shape=module;jettyWidth=8;jettyHeight=4;" parent="uwjMrfqby6ekMZz9i17e-0" vertex="1">
          <mxGeometry x="1" width="20" height="20" relative="1" as="geometry">
            <mxPoint x="-27" y="7" as="offset" />
          </mxGeometry>
        </mxCell>
        <mxCell id="uwjMrfqby6ekMZz9i17e-3" value="&amp;lt;&amp;lt;Componente&amp;gt;&amp;gt;&lt;div&gt;CardPlaceLocatorLibrary&lt;/div&gt;" style="rounded=0;whiteSpace=wrap;html=1;fillColor=#fff2cc;strokeColor=#d6b656;" parent="ibalX00g9vt64yQpozJs-1" vertex="1">
          <mxGeometry x="-314" y="682.5" width="150" height="35" as="geometry" />
        </mxCell>
        <mxCell id="uwjMrfqby6ekMZz9i17e-30" value="&lt;div&gt;«Cache»&lt;b&gt;&lt;br&gt;&lt;/b&gt;&lt;/div&gt;&lt;div&gt;&lt;b&gt;Redis Cache&lt;/b&gt;&lt;/div&gt;" style="html=1;dropTarget=0;whiteSpace=wrap;fillColor=#e1d5e7;strokeColor=#9673a6;" parent="ibalX00g9vt64yQpozJs-1" vertex="1">
          <mxGeometry x="-70" y="217.5" width="180" height="90" as="geometry" />
        </mxCell>
        <mxCell id="uwjMrfqby6ekMZz9i17e-31" value="" style="shape=module;jettyWidth=8;jettyHeight=4;" parent="uwjMrfqby6ekMZz9i17e-30" vertex="1">
          <mxGeometry x="1" width="20" height="20" relative="1" as="geometry">
            <mxPoint x="-27" y="7" as="offset" />
          </mxGeometry>
        </mxCell>
        <mxCell id="uwjMrfqby6ekMZz9i17e-46" style="rounded=0;orthogonalLoop=1;jettySize=auto;html=1;" parent="ibalX00g9vt64yQpozJs-1" source="WAyySOAWvUpvXSL9j0dH-2" target="WAyySOAWvUpvXSL9j0dH-0" edge="1">
          <mxGeometry relative="1" as="geometry">
            <mxPoint x="-362.37" y="871" as="sourcePoint" />
            <mxPoint x="-389.37" y="965.0000000000001" as="targetPoint" />
          </mxGeometry>
        </mxCell>
        <mxCell id="hMstRg2Ig_kQ_GUPlxNX-0" value="" style="rounded=0;whiteSpace=wrap;html=1;fillColor=#f8cecc;strokeColor=#b85450;" parent="ibalX00g9vt64yQpozJs-1" vertex="1">
          <mxGeometry x="-1301" y="111" width="50" height="20" as="geometry" />
        </mxCell>
        <mxCell id="hMstRg2Ig_kQ_GUPlxNX-1" value="Componente reutilizado con modificaciones" style="text;html=1;strokeColor=none;fillColor=none;align=left;verticalAlign=middle;whiteSpace=wrap;rounded=0;" parent="ibalX00g9vt64yQpozJs-1" vertex="1">
          <mxGeometry x="-1241" y="111" width="240" height="20" as="geometry" />
        </mxCell>
        <mxCell id="vuIAr291Dgmtw0vhvdgS-3" value="&lt;div&gt;«Service»&lt;b&gt;&lt;br&gt;&lt;/b&gt;&lt;/div&gt;&lt;div&gt;&lt;div style=&quot;&quot;&gt;&lt;span style=&quot;background-color: transparent;&quot;&gt;&lt;b&gt;Device Life Cycle&lt;/b&gt;&lt;/span&gt;&lt;br&gt;&lt;/div&gt;&lt;/div&gt;" style="html=1;dropTarget=0;whiteSpace=wrap;fillColor=#fff2cc;strokeColor=#d6b656;" parent="ibalX00g9vt64yQpozJs-1" vertex="1">
          <mxGeometry x="-975" y="268.5" width="180" height="90" as="geometry" />
        </mxCell>
        <mxCell id="vuIAr291Dgmtw0vhvdgS-4" value="" style="shape=module;jettyWidth=8;jettyHeight=4;" parent="vuIAr291Dgmtw0vhvdgS-3" vertex="1">
          <mxGeometry x="1" width="20" height="20" relative="1" as="geometry">
            <mxPoint x="-27" y="7" as="offset" />
          </mxGeometry>
        </mxCell>
        <mxCell id="vuIAr291Dgmtw0vhvdgS-44" value="&lt;div style=&quot;text-align: left;&quot;&gt;&lt;span style=&quot;background-color: transparent; color: light-dark(rgb(0, 0, 0), rgb(255, 255, 255)); font-size: 12px; text-align: center;&quot;&gt;(GET)&amp;nbsp;&lt;/span&gt;&lt;span style=&quot;background-color: transparent; font-size: 12px;&quot;&gt;/restrictions_management/v1/{card_id}/restriction&lt;/span&gt;&lt;/div&gt;" style="rounded=0;whiteSpace=wrap;html=1;align=left;fontSize=11;" parent="ibalX00g9vt64yQpozJs-1" vertex="1">
          <mxGeometry x="-1310" y="380.25" width="300" height="27" as="geometry" />
        </mxCell>
        <mxCell id="vuIAr291Dgmtw0vhvdgS-45" value="5" style="rounded=0;whiteSpace=wrap;html=1;fillColor=#bac8d3;strokeColor=#23445d;fontStyle=1" parent="ibalX00g9vt64yQpozJs-1" vertex="1">
          <mxGeometry x="-1350" y="380.25" width="40" height="27" as="geometry" />
        </mxCell>
        <mxCell id="oakPpAx6F8EtuWaysGjp-0" value="&amp;lt;&amp;lt;Componente&amp;gt;&amp;gt;&lt;div&gt;Multi-Redis-Factory&lt;/div&gt;" style="rounded=0;whiteSpace=wrap;html=1;fillColor=#fff2cc;strokeColor=#d6b656;" parent="ibalX00g9vt64yQpozJs-1" vertex="1">
          <mxGeometry x="-420" y="421" width="150" height="35" as="geometry" />
        </mxCell>
        <mxCell id="1r6Sa9GpILCDG1rnr68h-0" value="&amp;lt;&amp;lt;Componente&amp;gt;&amp;gt;&lt;div&gt;kafka-message-logging&lt;br&gt;&lt;/div&gt;" style="rounded=0;whiteSpace=wrap;html=1;fillColor=#fff2cc;strokeColor=#d6b656;" parent="ibalX00g9vt64yQpozJs-1" vertex="1">
          <mxGeometry x="-421" y="380.25" width="150" height="35" as="geometry" />
        </mxCell>
        <mxCell id="4cDpuZeNhOzvtEna1IyU-1" value="&amp;lt;&amp;lt;Componente&amp;gt;&amp;gt;&lt;div&gt;message-format&lt;br&gt;&lt;/div&gt;" style="rounded=0;whiteSpace=wrap;html=1;fillColor=#fff2cc;strokeColor=#d6b656;" parent="ibalX00g9vt64yQpozJs-1" vertex="1">
          <mxGeometry x="-421" y="343" width="150" height="35" as="geometry" />
        </mxCell>
        <mxCell id="1Mr-ZVO140pDe_VQ_S3K-0" style="edgeStyle=orthogonalEdgeStyle;rounded=0;orthogonalLoop=1;jettySize=auto;html=1;startArrow=none;startFill=0;entryX=0;entryY=0.5;entryDx=0;entryDy=0;exitX=1;exitY=0.3;exitDx=0;exitDy=0;exitPerimeter=0;" parent="ibalX00g9vt64yQpozJs-1" source="ibalX00g9vt64yQpozJs-6" target="uwjMrfqby6ekMZz9i17e-30" edge="1">
          <mxGeometry relative="1" as="geometry">
            <Array as="points">
              <mxPoint x="-165" y="330" />
              <mxPoint x="-165" y="262" />
            </Array>
            <mxPoint x="-260" y="268.5" as="sourcePoint" />
            <mxPoint x="-70" y="299.5" as="targetPoint" />
          </mxGeometry>
        </mxCell>
        <mxCell id="KAskMvH-FdpNS457HAVK-15" style="edgeStyle=orthogonalEdgeStyle;rounded=0;orthogonalLoop=1;jettySize=auto;html=1;entryX=0.25;entryY=1;entryDx=0;entryDy=0;" parent="ibalX00g9vt64yQpozJs-1" source="KAskMvH-FdpNS457HAVK-10" target="YT_dUnnxunZ9NrD1JXKK-0" edge="1">
          <mxGeometry relative="1" as="geometry">
            <Array as="points">
              <mxPoint x="-480" y="590" />
              <mxPoint x="-25" y="590" />
            </Array>
          </mxGeometry>
        </mxCell>
        <mxCell id="KAskMvH-FdpNS457HAVK-10" value="&lt;div&gt;«Microservicio»&lt;b&gt;&lt;br&gt;&lt;/b&gt;&lt;/div&gt;&lt;div&gt;&lt;b&gt;Launcher&lt;/b&gt;&lt;/div&gt;" style="html=1;dropTarget=0;whiteSpace=wrap;fillColor=#fff2cc;strokeColor=#d6b656;" parent="ibalX00g9vt64yQpozJs-1" vertex="1">
          <mxGeometry x="-570" y="640" width="180" height="80" as="geometry" />
        </mxCell>
        <mxCell id="KAskMvH-FdpNS457HAVK-11" value="" style="shape=module;jettyWidth=8;jettyHeight=4;" parent="KAskMvH-FdpNS457HAVK-10" vertex="1">
          <mxGeometry x="1" width="20" height="20" relative="1" as="geometry">
            <mxPoint x="-26" y="5" as="offset" />
          </mxGeometry>
        </mxCell>
        <mxCell id="KAskMvH-FdpNS457HAVK-16" value="&lt;font style=&quot;color: rgb(0, 0, 0);&quot;&gt;&lt;b style=&quot;font-size: 12px; text-align: center;&quot;&gt;request-&lt;/b&gt;&lt;b style=&quot;font-size: 12px; text-align: center;&quot;&gt;atm-limits-inq&lt;/b&gt;&lt;b style=&quot;font-size: 12px; text-align: center;&quot;&gt;-lmv1&lt;/b&gt;&lt;b style=&quot;font-size: 12px;&quot;&gt;-stream&lt;/b&gt;&lt;/font&gt;" style="rounded=0;whiteSpace=wrap;html=1;align=left;fontSize=11;" parent="ibalX00g9vt64yQpozJs-1" vertex="1">
          <mxGeometry x="-1301" y="830" width="270" height="20" as="geometry" />
        </mxCell>
        <mxCell id="KAskMvH-FdpNS457HAVK-17" value="&lt;div style=&quot;text-align: center;&quot;&gt;&lt;span style=&quot;background-color: transparent; color: light-dark(rgb(0, 0, 0), rgb(255, 255, 255)); font-size: 12px;&quot;&gt;&lt;b&gt;(lo debe indicar el microservivcio Launcher)&lt;/b&gt;&lt;/span&gt;&lt;/div&gt;" style="rounded=0;whiteSpace=wrap;html=1;align=left;fontSize=11;" parent="ibalX00g9vt64yQpozJs-1" vertex="1">
          <mxGeometry x="-1031" y="830" width="280" height="20" as="geometry" />
        </mxCell>
      </root>
    </mxGraphModel>
  </diagram>
  <diagram id="P0uca078UgwhhpQkU-cd" name="Streams">
    <mxGraphModel dx="1699" dy="529" grid="1" gridSize="10" guides="1" tooltips="1" connect="1" arrows="1" fold="1" page="1" pageScale="1" pageWidth="827" pageHeight="1169" math="0" shadow="0">
      <root>
        <mxCell id="0" />
        <mxCell id="1" parent="0" />
        <mxCell id="4vSoQlsN3PBgfnXqHqy_-1" value="&lt;div&gt;«Microservicio»&lt;b&gt;&lt;br&gt;&lt;/b&gt;&lt;/div&gt;&lt;div&gt;&lt;b&gt;pin--management&lt;/b&gt;&lt;br&gt;&lt;/div&gt;" style="html=1;dropTarget=0;whiteSpace=wrap;fillColor=#d5e8d4;strokeColor=#82b366;" parent="1" vertex="1">
          <mxGeometry x="462" y="411" width="180" height="90" as="geometry" />
        </mxCell>
        <mxCell id="4vSoQlsN3PBgfnXqHqy_-2" value="" style="shape=module;jettyWidth=8;jettyHeight=4;" parent="4vSoQlsN3PBgfnXqHqy_-1" vertex="1">
          <mxGeometry x="1" width="20" height="20" relative="1" as="geometry">
            <mxPoint x="-27" y="7" as="offset" />
          </mxGeometry>
        </mxCell>
        <mxCell id="4vSoQlsN3PBgfnXqHqy_-3" value="&lt;div&gt;«Microservicio»&lt;b&gt;&lt;br&gt;&lt;/b&gt;&lt;/div&gt;&lt;div&gt;&lt;b&gt;Launcher&lt;/b&gt;&lt;/div&gt;" style="html=1;dropTarget=0;whiteSpace=wrap;" parent="1" vertex="1">
          <mxGeometry x="-265" y="410" width="180" height="90" as="geometry" />
        </mxCell>
        <mxCell id="4vSoQlsN3PBgfnXqHqy_-4" value="" style="shape=module;jettyWidth=8;jettyHeight=4;" parent="4vSoQlsN3PBgfnXqHqy_-3" vertex="1">
          <mxGeometry x="1" width="20" height="20" relative="1" as="geometry">
            <mxPoint x="-27" y="41" as="offset" />
          </mxGeometry>
        </mxCell>
        <mxCell id="4vSoQlsN3PBgfnXqHqy_-5" value="" style="rounded=0;whiteSpace=wrap;html=1;" parent="1" vertex="1">
          <mxGeometry x="10" y="330" width="360" height="350" as="geometry" />
        </mxCell>
        <mxCell id="4vSoQlsN3PBgfnXqHqy_-6" value="&lt;b&gt;request-&lt;/b&gt;&lt;b&gt;pin-management&lt;/b&gt;&lt;b&gt;-mpt3&lt;/b&gt;&lt;b style=&quot;text-align: left;&quot;&gt;-stream&lt;/b&gt;" style="shape=cylinder3;whiteSpace=wrap;html=1;boundedLbl=1;backgroundOutline=1;size=15;rotation=0;direction=south;fillColor=#e1d5e7;strokeColor=#9673a6;" parent="1" vertex="1">
          <mxGeometry x="35" y="411" width="310" height="30" as="geometry" />
        </mxCell>
        <mxCell id="BM0YD6f-yyeIX_410Jj9-1" value="&lt;div&gt;«Event component»&lt;b&gt;&lt;br&gt;&lt;/b&gt;&lt;/div&gt;&lt;div&gt;&lt;b&gt;Redis Streams&lt;/b&gt;&lt;/div&gt;" style="text;html=1;align=center;verticalAlign=middle;whiteSpace=wrap;rounded=0;" parent="1" vertex="1">
          <mxGeometry x="120" y="340" width="120" height="30" as="geometry" />
        </mxCell>
        <mxCell id="BM0YD6f-yyeIX_410Jj9-2" value="" style="endArrow=classic;html=1;rounded=0;entryX=0.5;entryY=1;entryDx=0;entryDy=0;entryPerimeter=0;exitX=1;exitY=0.25;exitDx=0;exitDy=0;" parent="1" source="4vSoQlsN3PBgfnXqHqy_-3" target="4vSoQlsN3PBgfnXqHqy_-6" edge="1">
          <mxGeometry width="50" height="50" relative="1" as="geometry">
            <mxPoint x="-40" y="435.5" as="sourcePoint" />
            <mxPoint x="60" y="384" as="targetPoint" />
          </mxGeometry>
        </mxCell>
        <mxCell id="BM0YD6f-yyeIX_410Jj9-3" value="" style="endArrow=classic;html=1;rounded=0;entryX=0;entryY=0.25;entryDx=0;entryDy=0;exitX=0.5;exitY=0;exitDx=0;exitDy=0;exitPerimeter=0;" parent="1" source="4vSoQlsN3PBgfnXqHqy_-6" target="4vSoQlsN3PBgfnXqHqy_-1" edge="1">
          <mxGeometry width="50" height="50" relative="1" as="geometry">
            <mxPoint x="260" y="384" as="sourcePoint" />
            <mxPoint x="260" y="454" as="targetPoint" />
          </mxGeometry>
        </mxCell>
        <mxCell id="la-rwBMp85gm7iY0CXA6-1" value="" style="endArrow=classic;html=1;rounded=0;exitX=0.5;exitY=1;exitDx=0;exitDy=0;exitPerimeter=0;entryX=1;entryY=0.75;entryDx=0;entryDy=0;" parent="1" source="wTTz-yUmNMkJHmIfPpqJ-2" target="4vSoQlsN3PBgfnXqHqy_-3" edge="1">
          <mxGeometry width="50" height="50" relative="1" as="geometry">
            <mxPoint x="30" y="585" as="sourcePoint" />
            <mxPoint x="-85" y="518" as="targetPoint" />
          </mxGeometry>
        </mxCell>
        <mxCell id="wTTz-yUmNMkJHmIfPpqJ-2" value="&lt;div style=&quot;text-align: center;&quot;&gt;&lt;b&gt;A definir por el Launcher&lt;/b&gt;&lt;/div&gt;" style="shape=cylinder3;whiteSpace=wrap;html=1;boundedLbl=1;backgroundOutline=1;size=15;direction=south;fillColor=#f8cecc;strokeColor=#b85450;" parent="1" vertex="1">
          <mxGeometry x="35" y="470" width="310" height="30" as="geometry" />
        </mxCell>
        <mxCell id="wTTz-yUmNMkJHmIfPpqJ-3" value="" style="endArrow=classic;html=1;rounded=0;exitX=0;exitY=0.75;exitDx=0;exitDy=0;entryX=0.5;entryY=0;entryDx=0;entryDy=0;entryPerimeter=0;" parent="1" source="4vSoQlsN3PBgfnXqHqy_-1" target="wTTz-yUmNMkJHmIfPpqJ-2" edge="1">
          <mxGeometry width="50" height="50" relative="1" as="geometry">
            <mxPoint x="474" y="501" as="sourcePoint" />
            <mxPoint x="350" y="595" as="targetPoint" />
          </mxGeometry>
        </mxCell>
      </root>
    </mxGraphModel>
  </diagram>
  <diagram name="Clases device-limits" id="H1mp5dD5IItkxUQxP-CH">
    <mxGraphModel dx="1453" dy="1982" grid="1" gridSize="10" guides="1" tooltips="1" connect="1" arrows="1" fold="1" page="1" pageScale="1" pageWidth="850" pageHeight="1100" math="0" shadow="0">
      <root>
        <mxCell id="uwC5ymK-V9znXdQjigwV-0" />
        <mxCell id="uwC5ymK-V9znXdQjigwV-1" parent="uwC5ymK-V9znXdQjigwV-0" />
        <mxCell id="uwC5ymK-V9znXdQjigwV-2" value="com.mx.santander.plard.acl.microservice" style="shape=folder;fontStyle=1;spacingTop=10;tabWidth=40;tabHeight=14;tabPosition=left;html=1;whiteSpace=wrap;align=left;verticalAlign=top;" parent="uwC5ymK-V9znXdQjigwV-1" vertex="1">
          <mxGeometry x="330" y="-10" width="1600" height="1720" as="geometry" />
        </mxCell>
        <mxCell id="uwC5ymK-V9znXdQjigwV-3" value="infraestructure" style="shape=folder;fontStyle=1;spacingTop=10;tabWidth=40;tabHeight=14;tabPosition=left;html=1;whiteSpace=wrap;align=left;verticalAlign=top;" parent="uwC5ymK-V9znXdQjigwV-1" vertex="1">
          <mxGeometry x="580" y="1069.5" width="1320" height="620.5" as="geometry" />
        </mxCell>
        <mxCell id="uwC5ymK-V9znXdQjigwV-4" value="domain" style="shape=folder;fontStyle=1;spacingTop=10;tabWidth=40;tabHeight=14;tabPosition=left;html=1;whiteSpace=wrap;align=left;verticalAlign=top;" parent="uwC5ymK-V9znXdQjigwV-1" vertex="1">
          <mxGeometry x="1300" y="650" width="600" height="390" as="geometry" />
        </mxCell>
        <mxCell id="uwC5ymK-V9znXdQjigwV-5" value="Outbound" style="shape=folder;fontStyle=1;spacingTop=10;tabWidth=40;tabHeight=14;tabPosition=left;html=1;whiteSpace=wrap;align=left;verticalAlign=top;" parent="uwC5ymK-V9znXdQjigwV-1" vertex="1">
          <mxGeometry x="1320" y="820" width="560" height="200" as="geometry" />
        </mxCell>
        <mxCell id="uwC5ymK-V9znXdQjigwV-6" value="application" style="shape=folder;fontStyle=1;spacingTop=10;tabWidth=40;tabHeight=14;tabPosition=left;html=1;whiteSpace=wrap;align=left;verticalAlign=top;" parent="uwC5ymK-V9znXdQjigwV-1" vertex="1">
          <mxGeometry x="350" y="720" width="910" height="320" as="geometry" />
        </mxCell>
        <mxCell id="uwC5ymK-V9znXdQjigwV-7" value="Service" style="shape=folder;fontStyle=1;spacingTop=10;tabWidth=40;tabHeight=14;tabPosition=left;html=1;whiteSpace=wrap;align=left;verticalAlign=top;" parent="uwC5ymK-V9znXdQjigwV-1" vertex="1">
          <mxGeometry x="650" y="780" width="590" height="190" as="geometry" />
        </mxCell>
        <mxCell id="uwC5ymK-V9znXdQjigwV-8" value="model" style="shape=folder;fontStyle=1;spacingTop=10;tabWidth=40;tabHeight=14;tabPosition=left;html=1;whiteSpace=wrap;align=left;verticalAlign=top;" parent="uwC5ymK-V9znXdQjigwV-1" vertex="1">
          <mxGeometry x="610" y="1554.5" width="1200" height="115.5" as="geometry" />
        </mxCell>
        <mxCell id="uwC5ymK-V9znXdQjigwV-9" value="transform" style="shape=folder;fontStyle=1;spacingTop=10;tabWidth=40;tabHeight=14;tabPosition=left;html=1;whiteSpace=wrap;align=left;verticalAlign=top;" parent="uwC5ymK-V9znXdQjigwV-1" vertex="1">
          <mxGeometry x="610" y="1292" width="1200" height="248" as="geometry" />
        </mxCell>
        <mxCell id="uwC5ymK-V9znXdQjigwV-11" value="interface" style="shape=folder;fontStyle=1;spacingTop=10;tabWidth=40;tabHeight=14;tabPosition=left;html=1;whiteSpace=wrap;align=left;verticalAlign=top;" parent="uwC5ymK-V9znXdQjigwV-1" vertex="1">
          <mxGeometry x="350" y="30" width="910" height="670" as="geometry" />
        </mxCell>
        <mxCell id="uwC5ymK-V9znXdQjigwV-12" value="model" style="shape=folder;fontStyle=1;spacingTop=10;tabWidth=40;tabHeight=14;tabPosition=left;html=1;whiteSpace=wrap;align=left;verticalAlign=top;" parent="uwC5ymK-V9znXdQjigwV-1" vertex="1">
          <mxGeometry x="598" y="60" width="480" height="116" as="geometry" />
        </mxCell>
        <mxCell id="uwC5ymK-V9znXdQjigwV-13" value="transform" style="shape=folder;fontStyle=1;spacingTop=10;tabWidth=40;tabHeight=14;tabPosition=left;html=1;whiteSpace=wrap;align=left;verticalAlign=top;" parent="uwC5ymK-V9znXdQjigwV-1" vertex="1">
          <mxGeometry x="598" y="196" width="480" height="200" as="geometry" />
        </mxCell>
        <mxCell id="uwC5ymK-V9znXdQjigwV-14" value="events" style="shape=folder;fontStyle=1;spacingTop=10;tabWidth=40;tabHeight=14;tabPosition=left;html=1;whiteSpace=wrap;align=left;verticalAlign=top;" parent="uwC5ymK-V9znXdQjigwV-1" vertex="1">
          <mxGeometry x="360" y="430" width="889" height="240" as="geometry" />
        </mxCell>
        <mxCell id="uwC5ymK-V9znXdQjigwV-15" value="Model" style="shape=folder;fontStyle=1;spacingTop=10;tabWidth=40;tabHeight=14;tabPosition=left;html=1;whiteSpace=wrap;align=left;verticalAlign=top;" parent="uwC5ymK-V9znXdQjigwV-1" vertex="1">
          <mxGeometry x="1320" y="687.5" width="210" height="118.5" as="geometry" />
        </mxCell>
        <mxCell id="uwC5ymK-V9znXdQjigwV-16" value="LimitsDataModel" style="swimlane;fontStyle=1;align=center;verticalAlign=middle;childLayout=stackLayout;horizontal=1;startSize=29;horizontalStack=0;resizeParent=1;resizeParentMax=0;resizeLast=0;collapsible=0;marginBottom=0;html=1;whiteSpace=wrap;fillColor=#f5f5f5;strokeColor=#666666;fontColor=#333333;" parent="uwC5ymK-V9znXdQjigwV-1" vertex="1">
          <mxGeometry x="798" y="91" width="180" height="54" as="geometry" />
        </mxCell>
        <mxCell id="uwC5ymK-V9znXdQjigwV-17" value="&amp;lt;&amp;lt;Java Bean&amp;gt;&amp;gt;" style="text;html=1;align=center;verticalAlign=middle;spacingLeft=4;spacingRight=4;overflow=hidden;rotatable=0;points=[[0,0.5],[1,0.5]];portConstraint=eastwest;whiteSpace=wrap;" parent="uwC5ymK-V9znXdQjigwV-16" vertex="1">
          <mxGeometry y="29" width="180" height="25" as="geometry" />
        </mxCell>
        <mxCell id="uwC5ymK-V9znXdQjigwV-18" value="LimitsDataModel" style="swimlane;fontStyle=1;align=center;verticalAlign=middle;childLayout=stackLayout;horizontal=1;startSize=29;horizontalStack=0;resizeParent=1;resizeParentMax=0;resizeLast=0;collapsible=0;marginBottom=0;html=1;whiteSpace=wrap;" parent="uwC5ymK-V9znXdQjigwV-1" vertex="1">
          <mxGeometry x="1340" y="736" width="150" height="54" as="geometry" />
        </mxCell>
        <mxCell id="uwC5ymK-V9znXdQjigwV-19" value="&amp;lt;&amp;lt;Java Bean&amp;gt;&amp;gt;" style="text;html=1;align=center;verticalAlign=middle;spacingLeft=4;spacingRight=4;overflow=hidden;rotatable=0;points=[[0,0.5],[1,0.5]];portConstraint=eastwest;whiteSpace=wrap;" parent="uwC5ymK-V9znXdQjigwV-18" vertex="1">
          <mxGeometry y="29" width="150" height="25" as="geometry" />
        </mxCell>
        <mxCell id="uwC5ymK-V9znXdQjigwV-23" value="&amp;lt;&amp;lt;Component&amp;gt;&amp;gt;&lt;br&gt;&lt;b&gt;MessageTranslatorIn&lt;/b&gt;" style="swimlane;fontStyle=0;align=center;verticalAlign=top;childLayout=stackLayout;horizontal=1;startSize=55;horizontalStack=0;resizeParent=1;resizeParentMax=0;resizeLast=0;collapsible=0;marginBottom=0;html=1;whiteSpace=wrap;fillColor=#f5f5f5;fontColor=#333333;strokeColor=#666666;" parent="uwC5ymK-V9znXdQjigwV-1" vertex="1">
          <mxGeometry x="713" y="231" width="350" height="110" as="geometry" />
        </mxCell>
        <mxCell id="uwC5ymK-V9znXdQjigwV-24" value="" style="line;strokeWidth=1;align=left;verticalAlign=middle;spacingTop=-1;spacingLeft=3;spacingRight=3;rotatable=0;labelPosition=right;points=[];portConstraint=eastwest;" parent="uwC5ymK-V9znXdQjigwV-23" vertex="1">
          <mxGeometry y="55" width="350" height="8" as="geometry" />
        </mxCell>
        <mxCell id="uwC5ymK-V9znXdQjigwV-25" value="operations" style="text;html=1;align=center;verticalAlign=middle;spacingLeft=4;spacingRight=4;overflow=hidden;rotatable=0;points=[[0,0.5],[1,0.5]];portConstraint=eastwest;whiteSpace=wrap;" parent="uwC5ymK-V9znXdQjigwV-23" vertex="1">
          <mxGeometry y="63" width="350" height="20" as="geometry" />
        </mxCell>
        <mxCell id="uwC5ymK-V9znXdQjigwV-26" value="&lt;div&gt;&lt;b&gt;&lt;font style=&quot;color: rgb(0, 0, 204);&quot;&gt;requestLmv1ToLimitsData(String): LimitsDataModelDto&lt;/font&gt;&lt;/b&gt;&lt;/div&gt;" style="text;html=1;align=left;verticalAlign=middle;spacingLeft=4;spacingRight=4;overflow=hidden;rotatable=0;points=[[0,0.5],[1,0.5]];portConstraint=eastwest;whiteSpace=wrap;" parent="uwC5ymK-V9znXdQjigwV-23" vertex="1">
          <mxGeometry y="83" width="350" height="27" as="geometry" />
        </mxCell>
        <mxCell id="uwC5ymK-V9znXdQjigwV-27" value="Use" style="endArrow=open;endSize=12;dashed=1;html=1;rounded=0;exitX=0;exitY=0;exitDx=464.5;exitDy=14;exitPerimeter=0;" parent="uwC5ymK-V9znXdQjigwV-1" source="uwC5ymK-V9znXdQjigwV-14" target="uwC5ymK-V9znXdQjigwV-23" edge="1">
          <mxGeometry width="160" relative="1" as="geometry">
            <mxPoint x="627" y="473" as="sourcePoint" />
            <mxPoint x="580.8767123287671" y="398.5" as="targetPoint" />
          </mxGeometry>
        </mxCell>
        <mxCell id="uwC5ymK-V9znXdQjigwV-28" value="Use" style="endArrow=open;endSize=12;dashed=1;html=1;rounded=0;edgeStyle=orthogonalEdgeStyle;exitX=0;exitY=0;exitDx=260;exitDy=14;exitPerimeter=0;" parent="uwC5ymK-V9znXdQjigwV-1" source="uwC5ymK-V9znXdQjigwV-7" edge="1">
          <mxGeometry width="160" relative="1" as="geometry">
            <mxPoint x="1022" y="500" as="sourcePoint" />
            <mxPoint x="700" y="670" as="targetPoint" />
            <Array as="points">
              <mxPoint x="910" y="720" />
              <mxPoint x="701" y="720" />
            </Array>
          </mxGeometry>
        </mxCell>
        <mxCell id="uwC5ymK-V9znXdQjigwV-29" value="&amp;lt;&amp;lt;Component&amp;gt;&amp;gt;&lt;br&gt;&lt;b&gt;EventMessageTranslator&lt;/b&gt;" style="swimlane;fontStyle=0;align=center;verticalAlign=top;childLayout=stackLayout;horizontal=1;startSize=55;horizontalStack=0;resizeParent=1;resizeParentMax=0;resizeLast=0;collapsible=0;marginBottom=0;html=1;whiteSpace=wrap;fillColor=#f5f5f5;fontColor=#333333;strokeColor=#666666;" parent="uwC5ymK-V9znXdQjigwV-1" vertex="1">
          <mxGeometry x="1593" y="1352" width="200" height="120" as="geometry" />
        </mxCell>
        <mxCell id="uwC5ymK-V9znXdQjigwV-30" value="" style="line;strokeWidth=1;align=left;verticalAlign=middle;spacingTop=-1;spacingLeft=3;spacingRight=3;rotatable=0;labelPosition=right;points=[];portConstraint=eastwest;" parent="uwC5ymK-V9znXdQjigwV-29" vertex="1">
          <mxGeometry y="55" width="200" height="8" as="geometry" />
        </mxCell>
        <mxCell id="uwC5ymK-V9znXdQjigwV-31" value="operations" style="text;html=1;align=center;verticalAlign=middle;spacingLeft=4;spacingRight=4;overflow=hidden;rotatable=0;points=[[0,0.5],[1,0.5]];portConstraint=eastwest;whiteSpace=wrap;" parent="uwC5ymK-V9znXdQjigwV-29" vertex="1">
          <mxGeometry y="63" width="200" height="20" as="geometry" />
        </mxCell>
        <mxCell id="uwC5ymK-V9znXdQjigwV-32" value="&lt;div&gt;auditoriaToEvent(PinDataModel): string&lt;br&gt;&lt;/div&gt;" style="text;html=1;align=left;verticalAlign=middle;spacingLeft=4;spacingRight=4;overflow=hidden;rotatable=0;points=[[0,0.5],[1,0.5]];portConstraint=eastwest;whiteSpace=wrap;" parent="uwC5ymK-V9znXdQjigwV-29" vertex="1">
          <mxGeometry y="83" width="200" height="37" as="geometry" />
        </mxCell>
        <mxCell id="uwC5ymK-V9znXdQjigwV-39" value="" style="endArrow=open;endSize=12;dashed=1;html=1;rounded=0;exitX=0.5;exitY=0;exitDx=0;exitDy=0;" parent="uwC5ymK-V9znXdQjigwV-1" source="uwC5ymK-V9znXdQjigwV-23" target="uwC5ymK-V9znXdQjigwV-16" edge="1">
          <mxGeometry width="160" relative="1" as="geometry">
            <mxPoint x="539" y="469" as="sourcePoint" />
            <mxPoint x="536" y="376" as="targetPoint" />
          </mxGeometry>
        </mxCell>
        <mxCell id="uwC5ymK-V9znXdQjigwV-40" value="AuditoriaDto" style="swimlane;fontStyle=1;align=center;verticalAlign=middle;childLayout=stackLayout;horizontal=1;startSize=29;horizontalStack=0;resizeParent=1;resizeParentMax=0;resizeLast=0;collapsible=0;marginBottom=0;html=1;whiteSpace=wrap;fillColor=#f5f5f5;fontColor=#333333;strokeColor=#666666;" parent="uwC5ymK-V9znXdQjigwV-1" vertex="1">
          <mxGeometry x="1608" y="1593.5" width="170" height="54" as="geometry" />
        </mxCell>
        <mxCell id="uwC5ymK-V9znXdQjigwV-41" value="&amp;lt;&amp;lt;Java Bean&amp;gt;&amp;gt;" style="text;html=1;align=center;verticalAlign=middle;spacingLeft=4;spacingRight=4;overflow=hidden;rotatable=0;points=[[0,0.5],[1,0.5]];portConstraint=eastwest;whiteSpace=wrap;" parent="uwC5ymK-V9znXdQjigwV-40" vertex="1">
          <mxGeometry y="29" width="170" height="25" as="geometry" />
        </mxCell>
        <mxCell id="uwC5ymK-V9znXdQjigwV-42" value="" style="endArrow=open;endSize=12;dashed=1;html=1;rounded=0;" parent="uwC5ymK-V9znXdQjigwV-1" source="uwC5ymK-V9znXdQjigwV-29" target="uwC5ymK-V9znXdQjigwV-40" edge="1">
          <mxGeometry width="160" relative="1" as="geometry">
            <mxPoint x="1408" y="1669.5" as="sourcePoint" />
            <mxPoint x="1424" y="1583.5" as="targetPoint" />
          </mxGeometry>
        </mxCell>
        <mxCell id="uwC5ymK-V9znXdQjigwV-43" style="edgeStyle=orthogonalEdgeStyle;rounded=0;orthogonalLoop=1;jettySize=auto;html=1;entryX=0;entryY=0.5;entryDx=0;entryDy=0;dashed=1;endArrow=block;endFill=0;" parent="uwC5ymK-V9znXdQjigwV-1" source="uwC5ymK-V9znXdQjigwV-44" target="uwC5ymK-V9znXdQjigwV-87" edge="1">
          <mxGeometry relative="1" as="geometry" />
        </mxCell>
        <mxCell id="uwC5ymK-V9znXdQjigwV-44" value="RedisStreamSubscriberLmv1" style="swimlane;fontStyle=1;align=center;verticalAlign=middle;childLayout=stackLayout;horizontal=1;startSize=29;horizontalStack=0;resizeParent=1;resizeParentMax=0;resizeLast=0;collapsible=0;marginBottom=0;html=1;whiteSpace=wrap;fillColor=#f5f5f5;strokeColor=#666666;fontColor=#333333;" parent="uwC5ymK-V9znXdQjigwV-1" vertex="1">
          <mxGeometry x="840" y="473" width="174" height="54" as="geometry" />
        </mxCell>
        <mxCell id="uwC5ymK-V9znXdQjigwV-45" value="&amp;lt;&amp;lt;Java Component&amp;gt;&amp;gt;" style="text;html=1;align=center;verticalAlign=middle;spacingLeft=4;spacingRight=4;overflow=hidden;rotatable=0;points=[[0,0.5],[1,0.5]];portConstraint=eastwest;whiteSpace=wrap;" parent="uwC5ymK-V9znXdQjigwV-44" vertex="1">
          <mxGeometry y="29" width="174" height="25" as="geometry" />
        </mxCell>
        <mxCell id="uwC5ymK-V9znXdQjigwV-46" value="rest" style="shape=folder;fontStyle=1;spacingTop=10;tabWidth=40;tabHeight=14;tabPosition=left;html=1;whiteSpace=wrap;align=left;verticalAlign=top;" parent="uwC5ymK-V9znXdQjigwV-1" vertex="1">
          <mxGeometry x="635" y="1101.5" width="791" height="160.5" as="geometry" />
        </mxCell>
        <mxCell id="uwC5ymK-V9znXdQjigwV-66" value="config" style="shape=folder;fontStyle=1;spacingTop=10;tabWidth=40;tabHeight=14;tabPosition=left;html=1;whiteSpace=wrap;align=left;verticalAlign=top;" parent="uwC5ymK-V9znXdQjigwV-1" vertex="1">
          <mxGeometry x="394.25" y="780" width="230" height="190" as="geometry" />
        </mxCell>
        <mxCell id="uwC5ymK-V9znXdQjigwV-69" value="FeignConfig" style="swimlane;fontStyle=1;align=center;verticalAlign=middle;childLayout=stackLayout;horizontal=1;startSize=29;horizontalStack=0;resizeParent=1;resizeParentMax=0;resizeLast=0;collapsible=0;marginBottom=0;html=1;whiteSpace=wrap;fillColor=#f5f5f5;fontColor=#333333;strokeColor=#666666;" parent="uwC5ymK-V9znXdQjigwV-1" vertex="1">
          <mxGeometry x="424.25" y="838.5" width="180" height="54" as="geometry" />
        </mxCell>
        <mxCell id="uwC5ymK-V9znXdQjigwV-70" value="&amp;lt;&amp;lt;Java Component&amp;gt;&amp;gt;" style="text;html=1;align=center;verticalAlign=middle;spacingLeft=4;spacingRight=4;overflow=hidden;rotatable=0;points=[[0,0.5],[1,0.5]];portConstraint=eastwest;whiteSpace=wrap;" parent="uwC5ymK-V9znXdQjigwV-69" vertex="1">
          <mxGeometry y="29" width="180" height="25" as="geometry" />
        </mxCell>
        <mxCell id="uwC5ymK-V9znXdQjigwV-71" value="Use" style="endArrow=open;endSize=12;dashed=1;html=1;rounded=0;exitX=0.5;exitY=1;exitDx=0;exitDy=0;exitPerimeter=0;edgeStyle=orthogonalEdgeStyle;" parent="uwC5ymK-V9znXdQjigwV-1" source="uwC5ymK-V9znXdQjigwV-7" target="uwC5ymK-V9znXdQjigwV-72" edge="1">
          <mxGeometry width="160" relative="1" as="geometry">
            <mxPoint x="990" y="947" as="sourcePoint" />
            <mxPoint x="680" y="1123" as="targetPoint" />
          </mxGeometry>
        </mxCell>
        <mxCell id="uwC5ymK-V9znXdQjigwV-72" value="1" style="ellipse;whiteSpace=wrap;html=1;aspect=fixed;" parent="uwC5ymK-V9znXdQjigwV-1" vertex="1">
          <mxGeometry x="935" y="1010" width="20" height="20" as="geometry" />
        </mxCell>
        <mxCell id="uwC5ymK-V9znXdQjigwV-81" value="1" style="ellipse;whiteSpace=wrap;html=1;aspect=fixed;" parent="uwC5ymK-V9znXdQjigwV-1" vertex="1">
          <mxGeometry x="1683" y="1272" width="20" height="20" as="geometry" />
        </mxCell>
        <mxCell id="uwC5ymK-V9znXdQjigwV-82" value="Use" style="endArrow=open;endSize=12;dashed=1;html=1;rounded=0;" parent="uwC5ymK-V9znXdQjigwV-1" source="uwC5ymK-V9znXdQjigwV-81" target="uwC5ymK-V9znXdQjigwV-29" edge="1">
          <mxGeometry width="160" relative="1" as="geometry">
            <mxPoint x="1410" y="1272" as="sourcePoint" />
            <mxPoint x="1655.9228486646884" y="1214.75" as="targetPoint" />
          </mxGeometry>
        </mxCell>
        <mxCell id="uwC5ymK-V9znXdQjigwV-87" value="&amp;lt;&amp;lt;Interface&amp;gt;&amp;gt;&lt;br&gt;&lt;b style=&quot;border-color: var(--border-color);&quot;&gt;I&lt;/b&gt;&lt;span style=&quot;font-weight: 700;&quot;&gt;RedisStreamSubscriberLmv1&lt;/span&gt;" style="swimlane;fontStyle=0;align=center;verticalAlign=top;childLayout=stackLayout;horizontal=1;startSize=55;horizontalStack=0;resizeParent=1;resizeParentMax=0;resizeLast=0;collapsible=0;marginBottom=0;html=1;whiteSpace=wrap;fillColor=#f5f5f5;fontColor=#333333;strokeColor=#666666;" parent="uwC5ymK-V9znXdQjigwV-1" vertex="1">
          <mxGeometry x="1051" y="450" width="189" height="100" as="geometry" />
        </mxCell>
        <mxCell id="uwC5ymK-V9znXdQjigwV-88" value="" style="line;strokeWidth=1;align=left;verticalAlign=middle;spacingTop=-1;spacingLeft=3;spacingRight=3;rotatable=0;labelPosition=right;points=[];portConstraint=eastwest;" parent="uwC5ymK-V9znXdQjigwV-87" vertex="1">
          <mxGeometry y="55" width="189" height="8" as="geometry" />
        </mxCell>
        <mxCell id="uwC5ymK-V9znXdQjigwV-89" value="operations" style="text;html=1;align=center;verticalAlign=middle;spacingLeft=4;spacingRight=4;overflow=hidden;rotatable=0;points=[[0,0.5],[1,0.5]];portConstraint=eastwest;whiteSpace=wrap;" parent="uwC5ymK-V9znXdQjigwV-87" vertex="1">
          <mxGeometry y="63" width="189" height="20" as="geometry" />
        </mxCell>
        <mxCell id="uwC5ymK-V9znXdQjigwV-90" value="onMessage()&lt;div&gt;&lt;div&gt;&lt;br&gt;&lt;/div&gt;&lt;/div&gt;" style="text;html=1;align=left;verticalAlign=middle;spacingLeft=4;spacingRight=4;overflow=hidden;rotatable=0;points=[[0,0.5],[1,0.5]];portConstraint=eastwest;whiteSpace=wrap;" parent="uwC5ymK-V9znXdQjigwV-87" vertex="1">
          <mxGeometry y="83" width="189" height="17" as="geometry" />
        </mxCell>
        <mxCell id="uwC5ymK-V9znXdQjigwV-91" style="edgeStyle=orthogonalEdgeStyle;rounded=0;orthogonalLoop=1;jettySize=auto;html=1;entryX=0;entryY=0.5;entryDx=0;entryDy=0;dashed=1;endArrow=block;endFill=0;dashPattern=8 8;" parent="uwC5ymK-V9znXdQjigwV-1" edge="1">
          <mxGeometry relative="1" as="geometry">
            <mxPoint x="1110" y="986" as="targetPoint" />
          </mxGeometry>
        </mxCell>
        <mxCell id="uwC5ymK-V9znXdQjigwV-122" value="" style="endArrow=block;startArrow=none;endFill=0;startFill=0;endSize=8;html=1;verticalAlign=bottom;dashed=1;labelBackgroundColor=none;rounded=0;jumpStyle=arc;jumpSize=12;" parent="uwC5ymK-V9znXdQjigwV-1" source="uwC5ymK-V9znXdQjigwV-120" edge="1">
          <mxGeometry width="160" relative="1" as="geometry">
            <mxPoint x="1631" y="1288" as="sourcePoint" />
            <mxPoint x="1619.8736263736264" y="990" as="targetPoint" />
          </mxGeometry>
        </mxCell>
        <mxCell id="uwC5ymK-V9znXdQjigwV-130" value="Use" style="endArrow=open;endSize=12;dashed=1;html=1;rounded=0;" parent="uwC5ymK-V9znXdQjigwV-1" target="uwC5ymK-V9znXdQjigwV-123" edge="1">
          <mxGeometry x="-0.3544" y="6" width="160" relative="1" as="geometry">
            <mxPoint x="1305.1694915254238" y="1184.5" as="sourcePoint" />
            <mxPoint x="820" y="1343" as="targetPoint" />
            <mxPoint y="-1" as="offset" />
          </mxGeometry>
        </mxCell>
        <mxCell id="uwC5ymK-V9znXdQjigwV-131" value="1" style="ellipse;whiteSpace=wrap;html=1;aspect=fixed;" parent="uwC5ymK-V9znXdQjigwV-1" vertex="1">
          <mxGeometry x="1318" y="1234" width="20" height="20" as="geometry" />
        </mxCell>
        <mxCell id="uwC5ymK-V9znXdQjigwV-132" value="Use" style="endArrow=open;endSize=12;dashed=1;html=1;rounded=0;exitX=0.5;exitY=0;exitDx=0;exitDy=0;" parent="uwC5ymK-V9znXdQjigwV-1" source="uwC5ymK-V9znXdQjigwV-131" edge="1">
          <mxGeometry width="160" relative="1" as="geometry">
            <mxPoint x="1267" y="1254" as="sourcePoint" />
            <mxPoint x="1326.0588235294117" y="1184.5" as="targetPoint" />
          </mxGeometry>
        </mxCell>
        <mxCell id="mZZ4piZvKpgbZrroLsrH-1" value="&amp;lt;&amp;lt;Interface&amp;gt;&amp;gt;&lt;br&gt;&lt;b&gt;IAutorizador&lt;/b&gt;&lt;span data-teams=&quot;true&quot;&gt;&lt;strong&gt;DomainAPIClient&lt;/strong&gt;&lt;/span&gt;" style="swimlane;fontStyle=0;align=center;verticalAlign=top;childLayout=stackLayout;horizontal=1;startSize=55;horizontalStack=0;resizeParent=1;resizeParentMax=0;resizeLast=0;collapsible=0;marginBottom=0;html=1;whiteSpace=wrap;fillColor=#f5f5f5;fontColor=#333333;strokeColor=#666666;" parent="uwC5ymK-V9znXdQjigwV-1" vertex="1">
          <mxGeometry x="1335" y="870" width="230" height="120" as="geometry" />
        </mxCell>
        <mxCell id="mZZ4piZvKpgbZrroLsrH-2" value="" style="line;strokeWidth=1;align=left;verticalAlign=middle;spacingTop=-1;spacingLeft=3;spacingRight=3;rotatable=0;labelPosition=right;points=[];portConstraint=eastwest;" parent="mZZ4piZvKpgbZrroLsrH-1" vertex="1">
          <mxGeometry y="55" width="230" height="8" as="geometry" />
        </mxCell>
        <mxCell id="mZZ4piZvKpgbZrroLsrH-3" value="operations" style="text;html=1;align=center;verticalAlign=middle;spacingLeft=4;spacingRight=4;overflow=hidden;rotatable=0;points=[[0,0.5],[1,0.5]];portConstraint=eastwest;whiteSpace=wrap;" parent="mZZ4piZvKpgbZrroLsrH-1" vertex="1">
          <mxGeometry y="63" width="230" height="20" as="geometry" />
        </mxCell>
        <mxCell id="mZZ4piZvKpgbZrroLsrH-4" value="&lt;b&gt;&lt;font style=&quot;color: rgb(0, 0, 204);&quot;&gt;+getRestriction(CardId):&amp;nbsp;&lt;/font&gt;&lt;/b&gt;&lt;div&gt;&lt;b style=&quot;background-color: transparent; color: light-dark(rgb(0, 0, 0), rgb(255, 255, 255));&quot;&gt;&lt;font style=&quot;color: rgb(0, 0, 204);&quot;&gt;&lt;span style=&quot;text-align: center;&quot;&gt;LimitsDataModel&lt;/span&gt;&lt;/font&gt;&lt;/b&gt;&lt;/div&gt;" style="text;html=1;align=left;verticalAlign=middle;spacingLeft=4;spacingRight=4;overflow=hidden;rotatable=0;points=[[0,0.5],[1,0.5]];portConstraint=eastwest;whiteSpace=wrap;" parent="mZZ4piZvKpgbZrroLsrH-1" vertex="1">
          <mxGeometry y="83" width="230" height="37" as="geometry" />
        </mxCell>
        <mxCell id="mZZ4piZvKpgbZrroLsrH-7" value="&lt;span style=&quot;font-weight: 400;&quot; data-teams=&quot;true&quot;&gt;&lt;strong&gt;AutorizadorDomainAPIClient&lt;/strong&gt;&lt;/span&gt;" style="swimlane;fontStyle=1;align=center;verticalAlign=middle;childLayout=stackLayout;horizontal=1;startSize=29;horizontalStack=0;resizeParent=1;resizeParentMax=0;resizeLast=0;collapsible=0;marginBottom=0;html=1;whiteSpace=wrap;fillColor=#f5f5f5;fontColor=#333333;strokeColor=#666666;" parent="uwC5ymK-V9znXdQjigwV-1" vertex="1">
          <mxGeometry x="960" y="1132.75" width="175" height="54" as="geometry" />
        </mxCell>
        <mxCell id="mZZ4piZvKpgbZrroLsrH-8" value="&amp;lt;&amp;lt;API Client&amp;gt;&amp;gt;" style="text;html=1;align=center;verticalAlign=middle;spacingLeft=4;spacingRight=4;overflow=hidden;rotatable=0;points=[[0,0.5],[1,0.5]];portConstraint=eastwest;whiteSpace=wrap;" parent="mZZ4piZvKpgbZrroLsrH-7" vertex="1">
          <mxGeometry y="29" width="175" height="25" as="geometry" />
        </mxCell>
        <mxCell id="mZZ4piZvKpgbZrroLsrH-9" value="1" style="ellipse;whiteSpace=wrap;html=1;aspect=fixed;" parent="uwC5ymK-V9znXdQjigwV-1" vertex="1">
          <mxGeometry x="1044" y="1234" width="20" height="20" as="geometry" />
        </mxCell>
        <mxCell id="mZZ4piZvKpgbZrroLsrH-10" value="Use" style="endArrow=open;endSize=12;dashed=1;html=1;rounded=0;exitX=0.5;exitY=0;exitDx=0;exitDy=0;" parent="uwC5ymK-V9znXdQjigwV-1" source="mZZ4piZvKpgbZrroLsrH-9" target="mZZ4piZvKpgbZrroLsrH-7" edge="1">
          <mxGeometry width="160" relative="1" as="geometry">
            <mxPoint x="1338" y="1244" as="sourcePoint" />
            <mxPoint x="1336" y="1195" as="targetPoint" />
          </mxGeometry>
        </mxCell>
        <mxCell id="mZZ4piZvKpgbZrroLsrH-11" value="&amp;lt;&amp;lt;Component&amp;gt;&amp;gt;&lt;br&gt;&lt;strong style=&quot;color: rgb(51, 51, 51);&quot;&gt;&lt;strong&gt;AutorizadorlDomainAPI&lt;/strong&gt;Translator&lt;/strong&gt;" style="swimlane;fontStyle=0;align=center;verticalAlign=top;childLayout=stackLayout;horizontal=1;startSize=55;horizontalStack=0;resizeParent=1;resizeParentMax=0;resizeLast=0;collapsible=0;marginBottom=0;html=1;whiteSpace=wrap;fillColor=#f5f5f5;fontColor=#333333;strokeColor=#666666;" parent="uwC5ymK-V9znXdQjigwV-1" vertex="1">
          <mxGeometry x="624.25" y="1351" width="315" height="120" as="geometry" />
        </mxCell>
        <mxCell id="mZZ4piZvKpgbZrroLsrH-12" value="" style="line;strokeWidth=1;align=left;verticalAlign=middle;spacingTop=-1;spacingLeft=3;spacingRight=3;rotatable=0;labelPosition=right;points=[];portConstraint=eastwest;" parent="mZZ4piZvKpgbZrroLsrH-11" vertex="1">
          <mxGeometry y="55" width="315" height="8" as="geometry" />
        </mxCell>
        <mxCell id="mZZ4piZvKpgbZrroLsrH-13" value="operations" style="text;html=1;align=center;verticalAlign=middle;spacingLeft=4;spacingRight=4;overflow=hidden;rotatable=0;points=[[0,0.5],[1,0.5]];portConstraint=eastwest;whiteSpace=wrap;" parent="mZZ4piZvKpgbZrroLsrH-11" vertex="1">
          <mxGeometry y="63" width="315" height="20" as="geometry" />
        </mxCell>
        <mxCell id="mZZ4piZvKpgbZrroLsrH-14" value="&lt;font style=&quot;color: rgb(0, 0, 204);&quot;&gt;&lt;b style=&quot;color: rgb(0, 0, 204);&quot;&gt;+getRestrictionResponse(&lt;/b&gt;&lt;font color=&quot;#0000cc&quot;&gt;&lt;b&gt;QueryResponse&amp;nbsp;&lt;/b&gt;&lt;/font&gt;&lt;b style=&quot;color: rgb(0, 0, 204);&quot;&gt;response):&amp;nbsp;&lt;/b&gt;&lt;/font&gt;&lt;div&gt;&lt;span style=&quot;text-align: center;&quot;&gt;&lt;font style=&quot;color: rgb(0, 0, 204);&quot;&gt;&lt;b&gt;LimitsDataModel&lt;/b&gt;&lt;/font&gt;&lt;/span&gt;&lt;/div&gt;" style="text;html=1;align=left;verticalAlign=middle;spacingLeft=4;spacingRight=4;overflow=hidden;rotatable=0;points=[[0,0.5],[1,0.5]];portConstraint=eastwest;whiteSpace=wrap;" parent="mZZ4piZvKpgbZrroLsrH-11" vertex="1">
          <mxGeometry y="83" width="315" height="37" as="geometry" />
        </mxCell>
        <mxCell id="mZZ4piZvKpgbZrroLsrH-16" value="" style="endArrow=block;startArrow=none;endFill=0;startFill=0;endSize=8;html=1;verticalAlign=bottom;dashed=1;labelBackgroundColor=none;rounded=0;jumpStyle=arc;jumpSize=12;" parent="uwC5ymK-V9znXdQjigwV-1" source="mZZ4piZvKpgbZrroLsrH-7" target="mZZ4piZvKpgbZrroLsrH-1" edge="1">
          <mxGeometry width="160" relative="1" as="geometry">
            <mxPoint x="1682" y="1286" as="sourcePoint" />
            <mxPoint x="1701" y="1065" as="targetPoint" />
          </mxGeometry>
        </mxCell>
        <mxCell id="mZZ4piZvKpgbZrroLsrH-17" value="Use" style="endArrow=open;endSize=12;dashed=1;html=1;rounded=0;" parent="uwC5ymK-V9znXdQjigwV-1" source="mZZ4piZvKpgbZrroLsrH-7" target="mZZ4piZvKpgbZrroLsrH-11" edge="1">
          <mxGeometry x="-0.5002" y="5" width="160" relative="1" as="geometry">
            <mxPoint x="1314" y="1224" as="sourcePoint" />
            <mxPoint x="1217" y="1351" as="targetPoint" />
            <mxPoint as="offset" />
          </mxGeometry>
        </mxCell>
        <mxCell id="mZZ4piZvKpgbZrroLsrH-18" value="&lt;div style=&quot;text-align: center;&quot;&gt;&lt;font color=&quot;#000000&quot;&gt;QueryResponse&lt;/font&gt;&lt;/div&gt;" style="swimlane;fontStyle=1;align=center;verticalAlign=middle;childLayout=stackLayout;horizontal=1;startSize=29;horizontalStack=0;resizeParent=1;resizeParentMax=0;resizeLast=0;collapsible=0;marginBottom=0;html=1;whiteSpace=wrap;fillColor=#f5f5f5;fontColor=#333333;strokeColor=#666666;" parent="uwC5ymK-V9znXdQjigwV-1" vertex="1">
          <mxGeometry x="716.75" y="1594.5" width="130" height="53" as="geometry" />
        </mxCell>
        <mxCell id="mZZ4piZvKpgbZrroLsrH-19" value="&amp;lt;&amp;lt;Java Bean&amp;gt;&amp;gt;" style="text;html=1;align=center;verticalAlign=middle;spacingLeft=4;spacingRight=4;overflow=hidden;rotatable=0;points=[[0,0.5],[1,0.5]];portConstraint=eastwest;whiteSpace=wrap;" parent="mZZ4piZvKpgbZrroLsrH-18" vertex="1">
          <mxGeometry y="29" width="130" height="24" as="geometry" />
        </mxCell>
        <mxCell id="mZZ4piZvKpgbZrroLsrH-20" value="" style="endArrow=open;endSize=12;dashed=1;html=1;rounded=0;" parent="uwC5ymK-V9znXdQjigwV-1" source="mZZ4piZvKpgbZrroLsrH-11" target="mZZ4piZvKpgbZrroLsrH-18" edge="1">
          <mxGeometry width="160" relative="1" as="geometry">
            <mxPoint x="1160" y="1532.5" as="sourcePoint" />
            <mxPoint x="1161" y="1632.5" as="targetPoint" />
          </mxGeometry>
        </mxCell>
        <mxCell id="-czBZxa68sxDO4tBBu1C-0" value="1" style="ellipse;whiteSpace=wrap;html=1;aspect=fixed;" parent="uwC5ymK-V9znXdQjigwV-1" vertex="1">
          <mxGeometry x="1463" y="1272" width="20" height="20" as="geometry" />
        </mxCell>
        <mxCell id="-czBZxa68sxDO4tBBu1C-1" value="Use" style="endArrow=open;endSize=12;dashed=1;html=1;rounded=0;" parent="uwC5ymK-V9znXdQjigwV-1" source="-czBZxa68sxDO4tBBu1C-0" target="-czBZxa68sxDO4tBBu1C-2" edge="1">
          <mxGeometry width="160" relative="1" as="geometry">
            <mxPoint x="1279" y="1253" as="sourcePoint" />
            <mxPoint x="1279" y="1205" as="targetPoint" />
          </mxGeometry>
        </mxCell>
        <mxCell id="-czBZxa68sxDO4tBBu1C-2" value="&amp;lt;&amp;lt;Component&amp;gt;&amp;gt;&lt;br&gt;&lt;b&gt;MessageTranslatorOut&lt;/b&gt;" style="swimlane;fontStyle=0;align=center;verticalAlign=top;childLayout=stackLayout;horizontal=1;startSize=55;horizontalStack=0;resizeParent=1;resizeParentMax=0;resizeLast=0;collapsible=0;marginBottom=0;html=1;whiteSpace=wrap;fillColor=#f5f5f5;fontColor=#333333;strokeColor=#666666;" parent="uwC5ymK-V9znXdQjigwV-1" vertex="1">
          <mxGeometry x="1318" y="1352" width="260" height="120" as="geometry" />
        </mxCell>
        <mxCell id="-czBZxa68sxDO4tBBu1C-3" value="" style="line;strokeWidth=1;align=left;verticalAlign=middle;spacingTop=-1;spacingLeft=3;spacingRight=3;rotatable=0;labelPosition=right;points=[];portConstraint=eastwest;" parent="-czBZxa68sxDO4tBBu1C-2" vertex="1">
          <mxGeometry y="55" width="260" height="8" as="geometry" />
        </mxCell>
        <mxCell id="-czBZxa68sxDO4tBBu1C-4" value="operations" style="text;html=1;align=center;verticalAlign=middle;spacingLeft=4;spacingRight=4;overflow=hidden;rotatable=0;points=[[0,0.5],[1,0.5]];portConstraint=eastwest;whiteSpace=wrap;" parent="-czBZxa68sxDO4tBBu1C-2" vertex="1">
          <mxGeometry y="63" width="260" height="20" as="geometry" />
        </mxCell>
        <mxCell id="-czBZxa68sxDO4tBBu1C-5" value="&lt;div&gt;&lt;b style=&quot;background-color: initial; color: light-dark(rgb(0, 0, 0), rgb(255, 255, 255));&quot;&gt;&lt;font style=&quot;color: rgb(0, 0, 204);&quot;&gt;+sendRespMessageLmv1(LimitsDataModel): String [formato PS7]&lt;/font&gt;&lt;/b&gt;&lt;/div&gt;" style="text;html=1;align=left;verticalAlign=middle;spacingLeft=4;spacingRight=4;overflow=hidden;rotatable=0;points=[[0,0.5],[1,0.5]];portConstraint=eastwest;whiteSpace=wrap;" parent="-czBZxa68sxDO4tBBu1C-2" vertex="1">
          <mxGeometry y="83" width="260" height="37" as="geometry" />
        </mxCell>
        <mxCell id="QJ2t5lPRsB6mdiyIBp9y-0" value="&lt;b style=&quot;border-color: var(--border-color);&quot;&gt;&lt;b style=&quot;border-color: var(--border-color);&quot;&gt;&lt;b style=&quot;border-color: var(--border-color);&quot;&gt;LimitsInquiryLmv1&lt;/b&gt;&lt;/b&gt;UseCaseService&lt;/b&gt;" style="swimlane;fontStyle=1;align=center;verticalAlign=middle;childLayout=stackLayout;horizontal=1;startSize=29;horizontalStack=0;resizeParent=1;resizeParentMax=0;resizeLast=0;collapsible=0;marginBottom=0;html=1;whiteSpace=wrap;fillColor=#f5f5f5;fontColor=#333333;strokeColor=#666666;" parent="uwC5ymK-V9znXdQjigwV-1" vertex="1">
          <mxGeometry x="677" y="857" width="233" height="54" as="geometry" />
        </mxCell>
        <mxCell id="QJ2t5lPRsB6mdiyIBp9y-1" value="&amp;lt;&amp;lt;Java Component&amp;gt;&amp;gt;" style="text;html=1;align=center;verticalAlign=middle;spacingLeft=4;spacingRight=4;overflow=hidden;rotatable=0;points=[[0,0.5],[1,0.5]];portConstraint=eastwest;whiteSpace=wrap;" parent="QJ2t5lPRsB6mdiyIBp9y-0" vertex="1">
          <mxGeometry y="29" width="233" height="25" as="geometry" />
        </mxCell>
        <mxCell id="QJ2t5lPRsB6mdiyIBp9y-2" value="&amp;lt;&amp;lt;Interface&amp;gt;&amp;gt;&lt;br&gt;&lt;b style=&quot;border-color: var(--border-color);&quot;&gt;&lt;b style=&quot;border-color: var(--border-color);&quot;&gt;I&lt;/b&gt;&lt;b style=&quot;border-color: var(--border-color);&quot;&gt;LimitsInquiryLmv1UseCaseService&lt;/b&gt;&lt;br&gt;&lt;/b&gt;" style="swimlane;fontStyle=0;align=center;verticalAlign=top;childLayout=stackLayout;horizontal=1;startSize=55;horizontalStack=0;resizeParent=1;resizeParentMax=0;resizeLast=0;collapsible=0;marginBottom=0;html=1;whiteSpace=wrap;fillColor=#f5f5f5;fontColor=#333333;strokeColor=#666666;" parent="uwC5ymK-V9znXdQjigwV-1" vertex="1">
          <mxGeometry x="959" y="829" width="270" height="110" as="geometry" />
        </mxCell>
        <mxCell id="QJ2t5lPRsB6mdiyIBp9y-3" value="" style="line;strokeWidth=1;align=left;verticalAlign=middle;spacingTop=-1;spacingLeft=3;spacingRight=3;rotatable=0;labelPosition=right;points=[];portConstraint=eastwest;" parent="QJ2t5lPRsB6mdiyIBp9y-2" vertex="1">
          <mxGeometry y="55" width="270" height="8" as="geometry" />
        </mxCell>
        <mxCell id="QJ2t5lPRsB6mdiyIBp9y-4" value="operations" style="text;html=1;align=center;verticalAlign=middle;spacingLeft=4;spacingRight=4;overflow=hidden;rotatable=0;points=[[0,0.5],[1,0.5]];portConstraint=eastwest;whiteSpace=wrap;" parent="QJ2t5lPRsB6mdiyIBp9y-2" vertex="1">
          <mxGeometry y="63" width="270" height="20" as="geometry" />
        </mxCell>
        <mxCell id="QJ2t5lPRsB6mdiyIBp9y-5" value="&lt;div&gt;&lt;b&gt;&lt;font style=&quot;color: rgb(0, 0, 204);&quot;&gt;+limitsInq(LimitsDataModel)&lt;/font&gt;&lt;/b&gt;&lt;/div&gt;" style="text;html=1;align=left;verticalAlign=middle;spacingLeft=4;spacingRight=4;overflow=hidden;rotatable=0;points=[[0,0.5],[1,0.5]];portConstraint=eastwest;whiteSpace=wrap;" parent="QJ2t5lPRsB6mdiyIBp9y-2" vertex="1">
          <mxGeometry y="83" width="270" height="27" as="geometry" />
        </mxCell>
        <mxCell id="QJ2t5lPRsB6mdiyIBp9y-6" value="" style="endArrow=block;startArrow=none;endFill=0;startFill=0;endSize=8;html=1;verticalAlign=bottom;dashed=1;labelBackgroundColor=none;rounded=0;" parent="uwC5ymK-V9znXdQjigwV-1" source="QJ2t5lPRsB6mdiyIBp9y-0" target="QJ2t5lPRsB6mdiyIBp9y-2" edge="1">
          <mxGeometry width="160" relative="1" as="geometry">
            <mxPoint x="907" y="754" as="sourcePoint" />
            <mxPoint x="969" y="756" as="targetPoint" />
          </mxGeometry>
        </mxCell>
        <mxCell id="NsdawpHf-Qbo9-5_pd8y-0" value="&amp;lt;&amp;lt;Interface&amp;gt;&amp;gt;&lt;br&gt;&lt;b&gt;I&lt;/b&gt;&lt;span data-teams=&quot;true&quot;&gt;&lt;strong&gt;DeviceLifeCycleClient&lt;/strong&gt;&lt;/span&gt;" style="swimlane;fontStyle=0;align=center;verticalAlign=top;childLayout=stackLayout;horizontal=1;startSize=55;horizontalStack=0;resizeParent=1;resizeParentMax=0;resizeLast=0;collapsible=0;marginBottom=0;html=1;whiteSpace=wrap;fillColor=#f5f5f5;fontColor=#333333;strokeColor=#666666;" vertex="1" parent="uwC5ymK-V9znXdQjigwV-1">
          <mxGeometry x="1576" y="870" width="289" height="120" as="geometry" />
        </mxCell>
        <mxCell id="NsdawpHf-Qbo9-5_pd8y-1" value="" style="line;strokeWidth=1;align=left;verticalAlign=middle;spacingTop=-1;spacingLeft=3;spacingRight=3;rotatable=0;labelPosition=right;points=[];portConstraint=eastwest;" vertex="1" parent="NsdawpHf-Qbo9-5_pd8y-0">
          <mxGeometry y="55" width="289" height="8" as="geometry" />
        </mxCell>
        <mxCell id="NsdawpHf-Qbo9-5_pd8y-2" value="operations" style="text;html=1;align=center;verticalAlign=middle;spacingLeft=4;spacingRight=4;overflow=hidden;rotatable=0;points=[[0,0.5],[1,0.5]];portConstraint=eastwest;whiteSpace=wrap;" vertex="1" parent="NsdawpHf-Qbo9-5_pd8y-0">
          <mxGeometry y="63" width="289" height="20" as="geometry" />
        </mxCell>
        <mxCell id="NsdawpHf-Qbo9-5_pd8y-3" value="&lt;b&gt;&lt;font style=&quot;color: rgb(0, 0, 204);&quot;&gt;+getDevicesDetails(String deviceId, Boolean....):&amp;nbsp;&lt;/font&gt;&lt;/b&gt;&lt;div&gt;&lt;b&gt;&lt;font style=&quot;color: rgb(0, 0, 204);&quot;&gt;&lt;span style=&quot;text-align: center;&quot;&gt;LimitsDataModelDto&lt;/span&gt;&amp;nbsp;&lt;/font&gt;&lt;/b&gt;&lt;b style=&quot;background-color: transparent; color: light-dark(rgb(0, 0, 0), rgb(255, 255, 255));&quot;&gt;&lt;font style=&quot;color: rgb(0, 0, 204);&quot;&gt;[LMV1]&lt;/font&gt;&lt;/b&gt;&lt;/div&gt;" style="text;html=1;align=left;verticalAlign=middle;spacingLeft=4;spacingRight=4;overflow=hidden;rotatable=0;points=[[0,0.5],[1,0.5]];portConstraint=eastwest;whiteSpace=wrap;" vertex="1" parent="NsdawpHf-Qbo9-5_pd8y-0">
          <mxGeometry y="83" width="289" height="37" as="geometry" />
        </mxCell>
        <mxCell id="NsdawpHf-Qbo9-5_pd8y-4" value="&lt;span style=&quot;color: rgb(51, 51, 51); font-weight: 400;&quot; data-teams=&quot;true&quot;&gt;&lt;strong&gt;DeviceLifeCycleClient&lt;/strong&gt;&lt;/span&gt;" style="swimlane;fontStyle=1;align=center;verticalAlign=middle;childLayout=stackLayout;horizontal=1;startSize=29;horizontalStack=0;resizeParent=1;resizeParentMax=0;resizeLast=0;collapsible=0;marginBottom=0;html=1;whiteSpace=wrap;fillColor=#f5f5f5;fontColor=#333333;strokeColor=#666666;" vertex="1" parent="uwC5ymK-V9znXdQjigwV-1">
          <mxGeometry x="1248" y="1128.5" width="150" height="54" as="geometry" />
        </mxCell>
        <mxCell id="NsdawpHf-Qbo9-5_pd8y-5" value="&amp;lt;&amp;lt;API Client&amp;gt;&amp;gt;" style="text;html=1;align=center;verticalAlign=middle;spacingLeft=4;spacingRight=4;overflow=hidden;rotatable=0;points=[[0,0.5],[1,0.5]];portConstraint=eastwest;whiteSpace=wrap;" vertex="1" parent="NsdawpHf-Qbo9-5_pd8y-4">
          <mxGeometry y="29" width="150" height="25" as="geometry" />
        </mxCell>
        <mxCell id="NsdawpHf-Qbo9-5_pd8y-6" value="" style="endArrow=block;startArrow=none;endFill=0;startFill=0;endSize=8;html=1;verticalAlign=bottom;dashed=1;labelBackgroundColor=none;rounded=0;jumpStyle=arc;jumpSize=12;" edge="1" parent="uwC5ymK-V9znXdQjigwV-1" source="NsdawpHf-Qbo9-5_pd8y-4" target="NsdawpHf-Qbo9-5_pd8y-0">
          <mxGeometry width="160" relative="1" as="geometry">
            <mxPoint x="1464" y="1198" as="sourcePoint" />
            <mxPoint x="1783" y="715" as="targetPoint" />
          </mxGeometry>
        </mxCell>
        <mxCell id="NsdawpHf-Qbo9-5_pd8y-7" value="&amp;lt;&amp;lt;Component&amp;gt;&amp;gt;&lt;br&gt;&lt;strong style=&quot;color: rgb(51, 51, 51);&quot;&gt;DeviceLifeCycleTranslator&lt;/strong&gt;" style="swimlane;fontStyle=0;align=center;verticalAlign=top;childLayout=stackLayout;horizontal=1;startSize=55;horizontalStack=0;resizeParent=1;resizeParentMax=0;resizeLast=0;collapsible=0;marginBottom=0;html=1;whiteSpace=wrap;fillColor=#f5f5f5;fontColor=#333333;strokeColor=#666666;" vertex="1" parent="uwC5ymK-V9znXdQjigwV-1">
          <mxGeometry x="953" y="1351" width="350" height="160" as="geometry" />
        </mxCell>
        <mxCell id="NsdawpHf-Qbo9-5_pd8y-8" value="" style="line;strokeWidth=1;align=left;verticalAlign=middle;spacingTop=-1;spacingLeft=3;spacingRight=3;rotatable=0;labelPosition=right;points=[];portConstraint=eastwest;" vertex="1" parent="NsdawpHf-Qbo9-5_pd8y-7">
          <mxGeometry y="55" width="350" height="8" as="geometry" />
        </mxCell>
        <mxCell id="NsdawpHf-Qbo9-5_pd8y-9" value="operations" style="text;html=1;align=center;verticalAlign=middle;spacingLeft=4;spacingRight=4;overflow=hidden;rotatable=0;points=[[0,0.5],[1,0.5]];portConstraint=eastwest;whiteSpace=wrap;" vertex="1" parent="NsdawpHf-Qbo9-5_pd8y-7">
          <mxGeometry y="63" width="350" height="20" as="geometry" />
        </mxCell>
        <mxCell id="NsdawpHf-Qbo9-5_pd8y-10" value="&lt;font style=&quot;color: rgb(0, 0, 204);&quot;&gt;&lt;b&gt;+getDeviceDetailedLast4DigitsCardResponse( GetDeviceDetailedLast4DigitsCardResponseDto response):&amp;nbsp;&lt;/b&gt;&lt;/font&gt;&lt;div&gt;&lt;span style=&quot;text-align: center;&quot;&gt;&lt;font style=&quot;color: rgb(0, 0, 204);&quot;&gt;&lt;b style=&quot;color: light-dark(rgb(0, 0, 204), rgb(0, 0, 204));&quot;&gt;LimitsDataModelDto&lt;/b&gt;&lt;/font&gt;&lt;/span&gt;&lt;/div&gt;" style="text;html=1;align=left;verticalAlign=middle;spacingLeft=4;spacingRight=4;overflow=hidden;rotatable=0;points=[[0,0.5],[1,0.5]];portConstraint=eastwest;whiteSpace=wrap;" vertex="1" parent="NsdawpHf-Qbo9-5_pd8y-7">
          <mxGeometry y="83" width="350" height="77" as="geometry" />
        </mxCell>
        <mxCell id="NsdawpHf-Qbo9-5_pd8y-11" value="&lt;div style=&quot;text-align: left;&quot;&gt;&lt;span style=&quot;background-color: transparent; text-align: center;&quot;&gt;&lt;font color=&quot;#000000&quot;&gt;GetDeviceDetailedLast4DigitsCardResponse&lt;/font&gt;&lt;/span&gt;&lt;span style=&quot;background-color: transparent;&quot;&gt;&lt;font style=&quot;color: rgb(0, 0, 0);&quot;&gt;Dto&lt;/font&gt;&lt;/span&gt;&lt;/div&gt;" style="swimlane;fontStyle=1;align=center;verticalAlign=middle;childLayout=stackLayout;horizontal=1;startSize=29;horizontalStack=0;resizeParent=1;resizeParentMax=0;resizeLast=0;collapsible=0;marginBottom=0;html=1;whiteSpace=wrap;fillColor=#f5f5f5;fontColor=#333333;strokeColor=#666666;" vertex="1" parent="uwC5ymK-V9znXdQjigwV-1">
          <mxGeometry x="983.75" y="1602.75" width="288.5" height="53" as="geometry" />
        </mxCell>
        <mxCell id="NsdawpHf-Qbo9-5_pd8y-12" value="&amp;lt;&amp;lt;Java Bean&amp;gt;&amp;gt;" style="text;html=1;align=center;verticalAlign=middle;spacingLeft=4;spacingRight=4;overflow=hidden;rotatable=0;points=[[0,0.5],[1,0.5]];portConstraint=eastwest;whiteSpace=wrap;" vertex="1" parent="NsdawpHf-Qbo9-5_pd8y-11">
          <mxGeometry y="29" width="288.5" height="24" as="geometry" />
        </mxCell>
        <mxCell id="NsdawpHf-Qbo9-5_pd8y-13" value="Use" style="endArrow=open;endSize=12;dashed=1;html=1;rounded=0;" edge="1" parent="uwC5ymK-V9znXdQjigwV-1" source="NsdawpHf-Qbo9-5_pd8y-4" target="NsdawpHf-Qbo9-5_pd8y-7">
          <mxGeometry x="-0.3544" y="6" width="160" relative="1" as="geometry">
            <mxPoint x="981" y="1222" as="sourcePoint" />
            <mxPoint x="818" y="1341" as="targetPoint" />
            <mxPoint y="-1" as="offset" />
          </mxGeometry>
        </mxCell>
        <mxCell id="NsdawpHf-Qbo9-5_pd8y-14" value="" style="endArrow=open;endSize=12;dashed=1;html=1;rounded=0;" edge="1" parent="uwC5ymK-V9znXdQjigwV-1" source="NsdawpHf-Qbo9-5_pd8y-7" target="NsdawpHf-Qbo9-5_pd8y-11">
          <mxGeometry width="160" relative="1" as="geometry">
            <mxPoint x="1049.1577034883717" y="1643" as="sourcePoint" />
            <mxPoint x="858" y="1682.5" as="targetPoint" />
          </mxGeometry>
        </mxCell>
      </root>
    </mxGraphModel>
  </diagram>
  <diagram name="Seq LMV1" id="B7idx9FjxpoOFMdXGeZd">
    <mxGraphModel dx="-1282" dy="-293" grid="1" gridSize="10" guides="1" tooltips="1" connect="1" arrows="1" fold="1" page="1" pageScale="1" pageWidth="1100" pageHeight="850" math="0" shadow="0">
      <root>
        <mxCell id="u3XzuJ6JBvZbT9BNvgNG-0" />
        <mxCell id="u3XzuJ6JBvZbT9BNvgNG-1" parent="u3XzuJ6JBvZbT9BNvgNG-0" />
        <mxCell id="izovBkt0zpYJHhvqd-Qn-2" value="LimitsDataModelDto" style="shape=umlLifeline;perimeter=lifelinePerimeter;whiteSpace=wrap;html=1;container=1;dropTarget=0;collapsible=0;recursiveResize=0;outlineConnect=0;portConstraint=eastwest;newEdgeStyle={&quot;curved&quot;:0,&quot;rounded&quot;:0};" parent="u3XzuJ6JBvZbT9BNvgNG-1" vertex="1">
          <mxGeometry x="4649" y="1362.5" width="130" height="997.5" as="geometry" />
        </mxCell>
        <mxCell id="izovBkt0zpYJHhvqd-Qn-3" value="" style="html=1;points=[[0,0,0,0,5],[0,1,0,0,-5],[1,0,0,0,5],[1,1,0,0,-5]];perimeter=orthogonalPerimeter;outlineConnect=0;targetShapes=umlLifeline;portConstraint=eastwest;newEdgeStyle={&quot;curved&quot;:0,&quot;rounded&quot;:0};" parent="izovBkt0zpYJHhvqd-Qn-2" vertex="1">
          <mxGeometry x="60" y="325.5" width="10" height="624.5" as="geometry" />
        </mxCell>
        <mxCell id="izovBkt0zpYJHhvqd-Qn-4" value="&lt;span style=&quot;border-color: var(--border-color);&quot;&gt;MessageTranslatorIn&lt;/span&gt;" style="shape=umlLifeline;perimeter=lifelinePerimeter;whiteSpace=wrap;html=1;container=1;dropTarget=0;collapsible=0;recursiveResize=0;outlineConnect=0;portConstraint=eastwest;newEdgeStyle={&quot;curved&quot;:0,&quot;rounded&quot;:0};" parent="u3XzuJ6JBvZbT9BNvgNG-1" vertex="1">
          <mxGeometry x="4497" y="1362.5" width="140" height="997.5" as="geometry" />
        </mxCell>
        <mxCell id="izovBkt0zpYJHhvqd-Qn-5" value="" style="html=1;points=[[0,0,0,0,5],[0,1,0,0,-5],[1,0,0,0,5],[1,1,0,0,-5]];perimeter=orthogonalPerimeter;outlineConnect=0;targetShapes=umlLifeline;portConstraint=eastwest;newEdgeStyle={&quot;curved&quot;:0,&quot;rounded&quot;:0};" parent="izovBkt0zpYJHhvqd-Qn-4" vertex="1">
          <mxGeometry x="65" y="313.5" width="10" height="63.5" as="geometry" />
        </mxCell>
        <mxCell id="izovBkt0zpYJHhvqd-Qn-6" value="create()" style="html=1;verticalAlign=bottom;endArrow=block;curved=0;rounded=0;" parent="izovBkt0zpYJHhvqd-Qn-4" target="izovBkt0zpYJHhvqd-Qn-3" edge="1">
          <mxGeometry relative="1" as="geometry">
            <mxPoint x="75" y="333.5" as="sourcePoint" />
            <mxPoint x="240" y="333.5" as="targetPoint" />
          </mxGeometry>
        </mxCell>
        <mxCell id="izovBkt0zpYJHhvqd-Qn-7" value="&lt;div&gt;&lt;span style=&quot;font-weight: normal;&quot;&gt;autorizador-domain-api&lt;/span&gt;&lt;/div&gt;&lt;span style=&quot;font-weight: normal;&quot;&gt;&amp;lt;&amp;lt;API PLARD&amp;gt;&amp;gt;&lt;/span&gt;" style="shape=umlLifeline;perimeter=lifelinePerimeter;whiteSpace=wrap;html=1;container=1;dropTarget=0;collapsible=0;recursiveResize=0;outlineConnect=0;portConstraint=eastwest;newEdgeStyle={&quot;curved&quot;:0,&quot;rounded&quot;:0};fontStyle=1;fillColor=#dae8fc;strokeColor=#6c8ebf;" parent="u3XzuJ6JBvZbT9BNvgNG-1" vertex="1">
          <mxGeometry x="5533" y="1361.25" width="100" height="998.75" as="geometry" />
        </mxCell>
        <mxCell id="izovBkt0zpYJHhvqd-Qn-9" value="RedisStreamSubscriber" style="shape=umlLifeline;perimeter=lifelinePerimeter;whiteSpace=wrap;html=1;container=1;dropTarget=0;collapsible=0;recursiveResize=0;outlineConnect=0;portConstraint=eastwest;newEdgeStyle={&quot;curved&quot;:0,&quot;rounded&quot;:0};" parent="u3XzuJ6JBvZbT9BNvgNG-1" vertex="1">
          <mxGeometry x="4311" y="1362.5" width="140" height="997.5" as="geometry" />
        </mxCell>
        <mxCell id="izovBkt0zpYJHhvqd-Qn-10" value="" style="html=1;points=[[0,0,0,0,5],[0,1,0,0,-5],[1,0,0,0,5],[1,1,0,0,-5]];perimeter=orthogonalPerimeter;outlineConnect=0;targetShapes=umlLifeline;portConstraint=eastwest;newEdgeStyle={&quot;curved&quot;:0,&quot;rounded&quot;:0};" parent="izovBkt0zpYJHhvqd-Qn-9" vertex="1">
          <mxGeometry x="65" y="197" width="10" height="225" as="geometry" />
        </mxCell>
        <mxCell id="izovBkt0zpYJHhvqd-Qn-11" value="LimitsInquiryLmv1UseCaseService" style="shape=umlLifeline;perimeter=lifelinePerimeter;whiteSpace=wrap;html=1;container=1;dropTarget=0;collapsible=0;recursiveResize=0;outlineConnect=0;portConstraint=eastwest;newEdgeStyle={&quot;curved&quot;:0,&quot;rounded&quot;:0};" parent="u3XzuJ6JBvZbT9BNvgNG-1" vertex="1">
          <mxGeometry x="4796" y="1361.5" width="210" height="998.5" as="geometry" />
        </mxCell>
        <mxCell id="izovBkt0zpYJHhvqd-Qn-12" value="" style="html=1;points=[[0,0,0,0,5],[0,1,0,0,-5],[1,0,0,0,5],[1,1,0,0,-5]];perimeter=orthogonalPerimeter;outlineConnect=0;targetShapes=umlLifeline;portConstraint=eastwest;newEdgeStyle={&quot;curved&quot;:0,&quot;rounded&quot;:0};" parent="izovBkt0zpYJHhvqd-Qn-11" vertex="1">
          <mxGeometry x="99" y="392" width="10" height="578" as="geometry" />
        </mxCell>
        <mxCell id="izovBkt0zpYJHhvqd-Qn-13" value="+limitsInq(LimitsDataModel)" style="html=1;verticalAlign=bottom;endArrow=block;curved=0;rounded=0;" parent="u3XzuJ6JBvZbT9BNvgNG-1" target="izovBkt0zpYJHhvqd-Qn-12" edge="1">
          <mxGeometry x="-0.0002" width="80" relative="1" as="geometry">
            <mxPoint x="4386" y="1772.5" as="sourcePoint" />
            <mxPoint x="4870" y="1773.25" as="targetPoint" />
            <mxPoint as="offset" />
          </mxGeometry>
        </mxCell>
        <mxCell id="izovBkt0zpYJHhvqd-Qn-14" value="getRestriction(CardId)" style="html=1;verticalAlign=bottom;endArrow=block;curved=0;rounded=0;align=center;" parent="u3XzuJ6JBvZbT9BNvgNG-1" edge="1" target="izovBkt0zpYJHhvqd-Qn-16">
          <mxGeometry x="0.001" width="80" relative="1" as="geometry">
            <mxPoint x="4906" y="1831" as="sourcePoint" />
            <mxPoint x="5239" y="1831" as="targetPoint" />
            <mxPoint as="offset" />
          </mxGeometry>
        </mxCell>
        <mxCell id="izovBkt0zpYJHhvqd-Qn-15" value="AutorizadorDomainAPIClient" style="shape=umlLifeline;perimeter=lifelinePerimeter;whiteSpace=wrap;html=1;container=1;dropTarget=0;collapsible=0;recursiveResize=0;outlineConnect=0;portConstraint=eastwest;newEdgeStyle={&quot;curved&quot;:0,&quot;rounded&quot;:0};" parent="u3XzuJ6JBvZbT9BNvgNG-1" vertex="1">
          <mxGeometry x="5050" y="1362.5" width="160" height="997.5" as="geometry" />
        </mxCell>
        <mxCell id="izovBkt0zpYJHhvqd-Qn-16" value="" style="html=1;points=[[0,0,0,0,5],[0,1,0,0,-5],[1,0,0,0,5],[1,1,0,0,-5]];perimeter=orthogonalPerimeter;outlineConnect=0;targetShapes=umlLifeline;portConstraint=eastwest;newEdgeStyle={&quot;curved&quot;:0,&quot;rounded&quot;:0};" parent="izovBkt0zpYJHhvqd-Qn-15" vertex="1">
          <mxGeometry x="75" y="455.12" width="10" height="194.88" as="geometry" />
        </mxCell>
        <mxCell id="izovBkt0zpYJHhvqd-Qn-18" value="&lt;span style=&quot;border-color: var(--border-color); font-weight: normal;&quot;&gt;EventKafkaPublisher&lt;/span&gt;" style="shape=umlLifeline;perimeter=lifelinePerimeter;whiteSpace=wrap;html=1;container=1;dropTarget=0;collapsible=0;recursiveResize=0;outlineConnect=0;portConstraint=eastwest;newEdgeStyle={&quot;curved&quot;:0,&quot;rounded&quot;:0};fontStyle=1" parent="u3XzuJ6JBvZbT9BNvgNG-1" vertex="1">
          <mxGeometry x="6350" y="1362.88" width="120" height="997.12" as="geometry" />
        </mxCell>
        <mxCell id="izovBkt0zpYJHhvqd-Qn-19" value="" style="html=1;points=[[0,0,0,0,5],[0,1,0,0,-5],[1,0,0,0,5],[1,1,0,0,-5]];perimeter=orthogonalPerimeter;outlineConnect=0;targetShapes=umlLifeline;portConstraint=eastwest;newEdgeStyle={&quot;curved&quot;:0,&quot;rounded&quot;:0};" parent="izovBkt0zpYJHhvqd-Qn-18" vertex="1">
          <mxGeometry x="55" y="918.75" width="10" height="43.25" as="geometry" />
        </mxCell>
        <mxCell id="izovBkt0zpYJHhvqd-Qn-20" value="&lt;div&gt;&lt;span style=&quot;background-color: transparent; color: light-dark(rgb(0, 0, 0), rgb(255, 255, 255));&quot;&gt;&amp;lt;&amp;lt;Canal Santander&amp;gt;&amp;gt;&lt;/span&gt;&lt;/div&gt;" style="shape=umlLifeline;perimeter=lifelinePerimeter;whiteSpace=wrap;html=1;container=1;dropTarget=0;collapsible=0;recursiveResize=0;outlineConnect=0;portConstraint=eastwest;newEdgeStyle={&quot;curved&quot;:0,&quot;rounded&quot;:0};" parent="u3XzuJ6JBvZbT9BNvgNG-1" vertex="1">
          <mxGeometry x="3263" y="1360.75" width="140" height="999.25" as="geometry" />
        </mxCell>
        <mxCell id="izovBkt0zpYJHhvqd-Qn-21" value="" style="html=1;points=[[0,0,0,0,5],[0,1,0,0,-5],[1,0,0,0,5],[1,1,0,0,-5]];perimeter=orthogonalPerimeter;outlineConnect=0;targetShapes=umlLifeline;portConstraint=eastwest;newEdgeStyle={&quot;curved&quot;:0,&quot;rounded&quot;:0};" parent="izovBkt0zpYJHhvqd-Qn-20" vertex="1">
          <mxGeometry x="65" y="85" width="10" height="885" as="geometry" />
        </mxCell>
        <mxCell id="izovBkt0zpYJHhvqd-Qn-22" value="MQ Canal" style="shape=umlLifeline;perimeter=lifelinePerimeter;whiteSpace=wrap;html=1;container=1;dropTarget=0;collapsible=0;recursiveResize=0;outlineConnect=0;portConstraint=eastwest;newEdgeStyle={&quot;curved&quot;:0,&quot;rounded&quot;:0};" parent="u3XzuJ6JBvZbT9BNvgNG-1" vertex="1">
          <mxGeometry x="3412" y="1360.75" width="140" height="999.25" as="geometry" />
        </mxCell>
        <mxCell id="izovBkt0zpYJHhvqd-Qn-23" value="" style="html=1;points=[[0,0,0,0,5],[0,1,0,0,-5],[1,0,0,0,5],[1,1,0,0,-5]];perimeter=orthogonalPerimeter;outlineConnect=0;targetShapes=umlLifeline;portConstraint=eastwest;newEdgeStyle={&quot;curved&quot;:0,&quot;rounded&quot;:0};" parent="izovBkt0zpYJHhvqd-Qn-22" vertex="1">
          <mxGeometry x="65" y="85" width="10" height="895" as="geometry" />
        </mxCell>
        <mxCell id="izovBkt0zpYJHhvqd-Qn-24" value="Starter&lt;div&gt;&amp;lt;&amp;lt;microservicio&amp;gt;&amp;gt;&lt;/div&gt;" style="shape=umlLifeline;perimeter=lifelinePerimeter;whiteSpace=wrap;html=1;container=1;dropTarget=0;collapsible=0;recursiveResize=0;outlineConnect=0;portConstraint=eastwest;newEdgeStyle={&quot;curved&quot;:0,&quot;rounded&quot;:0};" parent="u3XzuJ6JBvZbT9BNvgNG-1" vertex="1">
          <mxGeometry x="3761" y="1362.25" width="140" height="997.75" as="geometry" />
        </mxCell>
        <mxCell id="izovBkt0zpYJHhvqd-Qn-25" value="" style="html=1;points=[[0,0,0,0,5],[0,1,0,0,-5],[1,0,0,0,5],[1,1,0,0,-5]];perimeter=orthogonalPerimeter;outlineConnect=0;targetShapes=umlLifeline;portConstraint=eastwest;newEdgeStyle={&quot;curved&quot;:0,&quot;rounded&quot;:0};" parent="izovBkt0zpYJHhvqd-Qn-24" vertex="1">
          <mxGeometry x="65" y="130" width="10" height="238" as="geometry" />
        </mxCell>
        <mxCell id="izovBkt0zpYJHhvqd-Qn-26" value="Redis Streams" style="shape=umlLifeline;perimeter=lifelinePerimeter;whiteSpace=wrap;html=1;container=1;dropTarget=0;collapsible=0;recursiveResize=0;outlineConnect=0;portConstraint=eastwest;newEdgeStyle={&quot;curved&quot;:0,&quot;rounded&quot;:0};fillColor=#dae8fc;strokeColor=#6c8ebf;" parent="u3XzuJ6JBvZbT9BNvgNG-1" vertex="1">
          <mxGeometry x="4131" y="1363.5" width="140" height="996.5" as="geometry" />
        </mxCell>
        <mxCell id="izovBkt0zpYJHhvqd-Qn-27" value="" style="html=1;points=[[0,0,0,0,5],[0,1,0,0,-5],[1,0,0,0,5],[1,1,0,0,-5]];perimeter=orthogonalPerimeter;outlineConnect=0;targetShapes=umlLifeline;portConstraint=eastwest;newEdgeStyle={&quot;curved&quot;:0,&quot;rounded&quot;:0};" parent="izovBkt0zpYJHhvqd-Qn-26" vertex="1">
          <mxGeometry x="65" y="197" width="10" height="130" as="geometry" />
        </mxCell>
        <mxCell id="izovBkt0zpYJHhvqd-Qn-28" value="" style="html=1;points=[[0,0,0,0,5],[0,1,0,0,-5],[1,0,0,0,5],[1,1,0,0,-5]];perimeter=orthogonalPerimeter;outlineConnect=0;targetShapes=umlLifeline;portConstraint=eastwest;newEdgeStyle={&quot;curved&quot;:0,&quot;rounded&quot;:0};" parent="izovBkt0zpYJHhvqd-Qn-26" vertex="1">
          <mxGeometry x="65" y="894" width="10" height="40" as="geometry" />
        </mxCell>
        <mxCell id="izovBkt0zpYJHhvqd-Qn-29" value="" style="html=1;points=[[0,0,0,0,5],[0,1,0,0,-5],[1,0,0,0,5],[1,1,0,0,-5]];perimeter=orthogonalPerimeter;outlineConnect=0;targetShapes=umlLifeline;portConstraint=eastwest;newEdgeStyle={&quot;curved&quot;:0,&quot;rounded&quot;:0};" parent="izovBkt0zpYJHhvqd-Qn-26" vertex="1">
          <mxGeometry x="65" y="97.75" width="10" height="55" as="geometry" />
        </mxCell>
        <mxCell id="izovBkt0zpYJHhvqd-Qn-30" value="Envía mensaje&amp;nbsp;&lt;div&gt;&lt;span style=&quot;background-color: light-dark(#ffffff, var(--ge-dark-color, #121212)); color: light-dark(rgb(0, 0, 0), rgb(255, 255, 255));&quot;&gt;Consulta limites&lt;/span&gt;&lt;span style=&quot;color: light-dark(rgb(0, 0, 0), rgb(255, 255, 255)); background-color: light-dark(#ffffff, var(--ge-dark-color, #121212));&quot;&gt;&amp;nbsp;&lt;/span&gt;&lt;span style=&quot;color: light-dark(rgb(0, 0, 0), rgb(255, 255, 255)); background-color: light-dark(#ffffff, var(--ge-dark-color, #121212));&quot;&gt;(LMV1&amp;nbsp;&lt;/span&gt;&lt;span style=&quot;color: light-dark(rgb(0, 0, 0), rgb(255, 255, 255)); background-color: light-dark(#ffffff, var(--ge-dark-color, #121212));&quot;&gt;trx)&lt;/span&gt;&lt;/div&gt;" style="html=1;verticalAlign=bottom;endArrow=block;curved=0;rounded=0;" parent="u3XzuJ6JBvZbT9BNvgNG-1" source="izovBkt0zpYJHhvqd-Qn-21" edge="1">
          <mxGeometry width="80" relative="1" as="geometry">
            <mxPoint x="3348" y="1459.25" as="sourcePoint" />
            <mxPoint x="3477" y="1459.5" as="targetPoint" />
            <mxPoint as="offset" />
          </mxGeometry>
        </mxCell>
        <mxCell id="izovBkt0zpYJHhvqd-Qn-31" value="lee mensaje&amp;nbsp;&lt;div&gt;(&lt;font&gt;LMV1&amp;nbsp;&lt;/font&gt;trx)&lt;/div&gt;" style="html=1;verticalAlign=bottom;endArrow=block;curved=0;rounded=0;" parent="u3XzuJ6JBvZbT9BNvgNG-1" edge="1">
          <mxGeometry x="0.0046" width="80" relative="1" as="geometry">
            <mxPoint x="3625" y="1468" as="sourcePoint" />
            <mxPoint x="3487" y="1468" as="targetPoint" />
            <mxPoint as="offset" />
          </mxGeometry>
        </mxCell>
        <mxCell id="izovBkt0zpYJHhvqd-Qn-32" value="valida si es tarjeta PLARD" style="html=1;align=left;spacingLeft=2;endArrow=block;rounded=0;edgeStyle=orthogonalEdgeStyle;curved=0;rounded=0;" parent="u3XzuJ6JBvZbT9BNvgNG-1" edge="1">
          <mxGeometry relative="1" as="geometry">
            <mxPoint x="3831" y="1619" as="sourcePoint" />
            <Array as="points">
              <mxPoint x="3861" y="1649" />
            </Array>
            <mxPoint x="3836" y="1649.0588235294117" as="targetPoint" />
          </mxGeometry>
        </mxCell>
        <mxCell id="izovBkt0zpYJHhvqd-Qn-33" value="envía mensaje (&lt;font style=&quot;color: rgb(0, 0, 0);&quot;&gt;LMV1&lt;/font&gt;&amp;nbsp;trx)" style="html=1;verticalAlign=bottom;endArrow=block;curved=0;rounded=0;" parent="u3XzuJ6JBvZbT9BNvgNG-1" edge="1">
          <mxGeometry width="80" relative="1" as="geometry">
            <mxPoint x="3836" y="1670.25" as="sourcePoint" />
            <mxPoint x="4196" y="1670.25" as="targetPoint" />
            <mxPoint as="offset" />
          </mxGeometry>
        </mxCell>
        <mxCell id="izovBkt0zpYJHhvqd-Qn-34" value="suscribirse a Stream" style="html=1;verticalAlign=bottom;endArrow=block;curved=0;rounded=0;" parent="u3XzuJ6JBvZbT9BNvgNG-1" edge="1">
          <mxGeometry x="0.0046" width="80" relative="1" as="geometry">
            <mxPoint x="4376" y="1574.5" as="sourcePoint" />
            <mxPoint x="4206" y="1574.5" as="targetPoint" />
            <mxPoint as="offset" />
          </mxGeometry>
        </mxCell>
        <mxCell id="izovBkt0zpYJHhvqd-Qn-35" value="leer mensaje (&lt;span style=&quot;color: rgb(255, 0, 0);&quot;&gt;&lt;font style=&quot;color: rgb(0, 0, 0);&quot;&gt;LMV1&lt;/font&gt;&lt;/span&gt;&lt;span style=&quot;color: rgb(255, 0, 0);&quot;&gt;&amp;nbsp;&lt;/span&gt;trx)" style="html=1;verticalAlign=bottom;endArrow=block;curved=0;rounded=0;" parent="u3XzuJ6JBvZbT9BNvgNG-1" edge="1">
          <mxGeometry x="0.0046" width="80" relative="1" as="geometry">
            <mxPoint x="4376" y="1678.5" as="sourcePoint" />
            <mxPoint x="4206" y="1678.5" as="targetPoint" />
            <mxPoint as="offset" />
          </mxGeometry>
        </mxCell>
        <mxCell id="izovBkt0zpYJHhvqd-Qn-36" value="convertir PS7 a DTO&lt;div&gt;requestLMV1ToLimitsData(String)&lt;/div&gt;" style="html=1;verticalAlign=bottom;endArrow=block;curved=0;rounded=0;" parent="u3XzuJ6JBvZbT9BNvgNG-1" source="izovBkt0zpYJHhvqd-Qn-10" edge="1">
          <mxGeometry x="0.0027" width="80" relative="1" as="geometry">
            <mxPoint x="4398" y="1686.25" as="sourcePoint" />
            <mxPoint x="4562" y="1686" as="targetPoint" />
            <mxPoint as="offset" />
          </mxGeometry>
        </mxCell>
        <mxCell id="izovBkt0zpYJHhvqd-Qn-37" value="return" style="html=1;verticalAlign=bottom;endArrow=open;dashed=1;endSize=8;curved=0;rounded=0;" parent="u3XzuJ6JBvZbT9BNvgNG-1" target="izovBkt0zpYJHhvqd-Qn-10" edge="1">
          <mxGeometry relative="1" as="geometry">
            <mxPoint x="4378" y="1731.25" as="targetPoint" />
            <mxPoint x="4562" y="1731.0000000000005" as="sourcePoint" />
          </mxGeometry>
        </mxCell>
        <mxCell id="izovBkt0zpYJHhvqd-Qn-38" value="return" style="html=1;verticalAlign=bottom;endArrow=open;dashed=1;endSize=8;curved=0;rounded=0;exitX=0;exitY=1;exitDx=0;exitDy=-5;" parent="u3XzuJ6JBvZbT9BNvgNG-1" target="izovBkt0zpYJHhvqd-Qn-5" edge="1">
          <mxGeometry relative="1" as="geometry">
            <mxPoint x="4590" y="1717.25" as="targetPoint" />
            <mxPoint x="4709" y="1717.5" as="sourcePoint" />
          </mxGeometry>
        </mxCell>
        <mxCell id="izovBkt0zpYJHhvqd-Qn-41" value="AutorizadorlDomainAPITranslator" style="shape=umlLifeline;perimeter=lifelinePerimeter;whiteSpace=wrap;html=1;container=1;dropTarget=0;collapsible=0;recursiveResize=0;outlineConnect=0;portConstraint=eastwest;newEdgeStyle={&quot;curved&quot;:0,&quot;rounded&quot;:0};" parent="u3XzuJ6JBvZbT9BNvgNG-1" vertex="1">
          <mxGeometry x="5330" y="1363.5" width="183" height="996.5" as="geometry" />
        </mxCell>
        <mxCell id="izovBkt0zpYJHhvqd-Qn-43" value="" style="html=1;points=[[0,0,0,0,5],[0,1,0,0,-5],[1,0,0,0,5],[1,1,0,0,-5]];perimeter=orthogonalPerimeter;outlineConnect=0;targetShapes=umlLifeline;portConstraint=eastwest;newEdgeStyle={&quot;curved&quot;:0,&quot;rounded&quot;:0};" parent="izovBkt0zpYJHhvqd-Qn-41" vertex="1">
          <mxGeometry x="86.5" y="538.5" width="10" height="78" as="geometry" />
        </mxCell>
        <mxCell id="izovBkt0zpYJHhvqd-Qn-50" value="&lt;span style=&quot;border-color: var(--border-color); font-weight: normal;&quot;&gt;MessageTranslatorOut&lt;/span&gt;" style="shape=umlLifeline;perimeter=lifelinePerimeter;whiteSpace=wrap;html=1;container=1;dropTarget=0;collapsible=0;recursiveResize=0;outlineConnect=0;portConstraint=eastwest;newEdgeStyle={&quot;curved&quot;:0,&quot;rounded&quot;:0};fontStyle=1" parent="u3XzuJ6JBvZbT9BNvgNG-1" vertex="1">
          <mxGeometry x="6170" y="1362.88" width="140" height="997.12" as="geometry" />
        </mxCell>
        <mxCell id="izovBkt0zpYJHhvqd-Qn-51" value="" style="html=1;points=[[0,0,0,0,5],[0,1,0,0,-5],[1,0,0,0,5],[1,1,0,0,-5]];perimeter=orthogonalPerimeter;outlineConnect=0;targetShapes=umlLifeline;portConstraint=eastwest;newEdgeStyle={&quot;curved&quot;:0,&quot;rounded&quot;:0};" parent="izovBkt0zpYJHhvqd-Qn-50" vertex="1">
          <mxGeometry x="65" y="844.75" width="10" height="43.25" as="geometry" />
        </mxCell>
        <mxCell id="izovBkt0zpYJHhvqd-Qn-52" value="+sendRespMessageLmv1(LimitsDataModel)" style="html=1;verticalAlign=bottom;endArrow=block;curved=0;rounded=0;" parent="u3XzuJ6JBvZbT9BNvgNG-1" target="izovBkt0zpYJHhvqd-Qn-51" edge="1">
          <mxGeometry width="80" relative="1" as="geometry">
            <mxPoint x="4905" y="2217.25" as="sourcePoint" />
            <mxPoint x="5885" y="2217.25" as="targetPoint" />
            <mxPoint as="offset" />
          </mxGeometry>
        </mxCell>
        <mxCell id="izovBkt0zpYJHhvqd-Qn-53" value="&lt;font style=&quot;font-size: 11px;&quot;&gt;return&amp;nbsp;&lt;span style=&quot;text-align: left; text-wrap: wrap; background-color: rgb(251, 251, 251);&quot;&gt;messagePS7&lt;/span&gt;&lt;/font&gt;" style="html=1;verticalAlign=bottom;endArrow=open;dashed=1;endSize=8;curved=0;rounded=0;" parent="u3XzuJ6JBvZbT9BNvgNG-1" source="izovBkt0zpYJHhvqd-Qn-51" edge="1">
          <mxGeometry relative="1" as="geometry">
            <mxPoint x="5885" y="2239.8749999999995" as="sourcePoint" />
            <mxPoint x="4905" y="2239.8749999999995" as="targetPoint" />
          </mxGeometry>
        </mxCell>
        <mxCell id="izovBkt0zpYJHhvqd-Qn-54" value="publicar mensaje (&lt;font style=&quot;color: rgb(0, 0, 0);&quot;&gt;LMV1&lt;/font&gt;&lt;font color=&quot;#ff0000&quot;&gt;&amp;nbsp;&lt;/font&gt;trx Response)" style="html=1;verticalAlign=bottom;endArrow=block;curved=0;rounded=0;" parent="u3XzuJ6JBvZbT9BNvgNG-1" edge="1">
          <mxGeometry x="0.0002" width="80" relative="1" as="geometry">
            <mxPoint x="4895" y="2263.5" as="sourcePoint" />
            <mxPoint x="4206" y="2263.5" as="targetPoint" />
            <mxPoint as="offset" />
          </mxGeometry>
        </mxCell>
        <mxCell id="izovBkt0zpYJHhvqd-Qn-55" value="Obtener mensaje&amp;nbsp;&lt;div&gt;(&lt;span style=&quot;color: rgb(255, 0, 0);&quot;&gt;&lt;font style=&quot;color: rgb(0, 0, 0);&quot;&gt;LMV1&lt;/font&gt;&lt;/span&gt;&lt;span style=&quot;color: rgb(255, 0, 0);&quot;&gt;&amp;nbsp;&lt;/span&gt;trx response)&lt;/div&gt;" style="html=1;verticalAlign=bottom;endArrow=block;curved=0;rounded=0;" parent="u3XzuJ6JBvZbT9BNvgNG-1" edge="1">
          <mxGeometry x="-0.0781" width="80" relative="1" as="geometry">
            <mxPoint x="3635" y="2272.2662499999997" as="sourcePoint" />
            <mxPoint x="4196" y="2272.2662499999997" as="targetPoint" />
            <mxPoint as="offset" />
          </mxGeometry>
        </mxCell>
        <mxCell id="izovBkt0zpYJHhvqd-Qn-56" value="return LMV1&lt;span style=&quot;color: rgb(255, 0, 0);&quot;&gt;&amp;nbsp;&lt;/span&gt;trx" style="html=1;verticalAlign=bottom;endArrow=open;dashed=1;endSize=8;curved=0;rounded=0;exitX=0;exitY=1;exitDx=0;exitDy=-5;exitPerimeter=0;" parent="u3XzuJ6JBvZbT9BNvgNG-1" source="izovBkt0zpYJHhvqd-Qn-28" target="izovBkt0zpYJHhvqd-Qn-85" edge="1">
          <mxGeometry relative="1" as="geometry">
            <mxPoint x="3826" y="2229" as="sourcePoint" />
            <mxPoint x="3687.0000000000005" y="2229" as="targetPoint" />
          </mxGeometry>
        </mxCell>
        <mxCell id="izovBkt0zpYJHhvqd-Qn-57" value="Obtiene mensaje&amp;nbsp;&lt;div&gt;respuesta&amp;nbsp;&lt;span style=&quot;background-color: initial; color: light-dark(rgb(0, 0, 0), rgb(255, 255, 255));&quot;&gt;de la consulta&amp;nbsp;&lt;/span&gt;&lt;/div&gt;&lt;div&gt;&lt;span style=&quot;background-color: initial; color: light-dark(rgb(0, 0, 0), rgb(255, 255, 255));&quot;&gt;(&lt;/span&gt;&lt;span style=&quot;background-color: rgb(255, 255, 255); color: rgb(255, 0, 0);&quot;&gt;&lt;font style=&quot;color: rgb(0, 0, 0);&quot;&gt;LMV1&lt;/font&gt;&lt;/span&gt;&lt;span style=&quot;color: rgb(255, 0, 0); background-color: rgb(255, 255, 255);&quot;&gt;&amp;nbsp;&lt;/span&gt;&lt;span style=&quot;background-color: initial; color: light-dark(rgb(0, 0, 0), rgb(255, 255, 255));&quot;&gt;trx)&lt;/span&gt;&lt;/div&gt;" style="html=1;verticalAlign=bottom;endArrow=block;curved=0;rounded=0;labelBackgroundColor=none;" parent="u3XzuJ6JBvZbT9BNvgNG-1" edge="1">
          <mxGeometry x="0.0009" width="80" relative="1" as="geometry">
            <mxPoint x="3338" y="2304.5" as="sourcePoint" />
            <mxPoint x="3477" y="2304.5" as="targetPoint" />
            <mxPoint as="offset" />
          </mxGeometry>
        </mxCell>
        <mxCell id="izovBkt0zpYJHhvqd-Qn-59" value="sendAudit(LimitsDataModel)" style="html=1;verticalAlign=bottom;endArrow=block;curved=0;rounded=0;" parent="u3XzuJ6JBvZbT9BNvgNG-1" target="izovBkt0zpYJHhvqd-Qn-19" edge="1">
          <mxGeometry x="-0.0278" y="-2" width="80" relative="1" as="geometry">
            <mxPoint x="4906" y="2292.25" as="sourcePoint" />
            <mxPoint x="6278" y="2292.25" as="targetPoint" />
            <mxPoint as="offset" />
          </mxGeometry>
        </mxCell>
        <mxCell id="izovBkt0zpYJHhvqd-Qn-60" value="ref - Pista Auditoria" style="shape=umlFrame;whiteSpace=wrap;html=1;pointerEvents=0;width=120;height=22;" parent="u3XzuJ6JBvZbT9BNvgNG-1" vertex="1">
          <mxGeometry x="6355" y="2248.13" width="145" height="84.25" as="geometry" />
        </mxCell>
        <mxCell id="izovBkt0zpYJHhvqd-Qn-61" value="return" style="html=1;verticalAlign=bottom;endArrow=open;dashed=1;endSize=8;curved=0;rounded=0;" parent="u3XzuJ6JBvZbT9BNvgNG-1" source="izovBkt0zpYJHhvqd-Qn-19" edge="1">
          <mxGeometry relative="1" as="geometry">
            <mxPoint x="6271" y="2314.5" as="sourcePoint" />
            <mxPoint x="4905" y="2313.8605" as="targetPoint" />
          </mxGeometry>
        </mxCell>
        <mxCell id="izovBkt0zpYJHhvqd-Qn-62" value="Actualizar información" style="html=1;verticalAlign=bottom;endArrow=block;curved=0;rounded=0;" parent="u3XzuJ6JBvZbT9BNvgNG-1" edge="1">
          <mxGeometry relative="1" as="geometry">
            <mxPoint x="4895" y="1815.4999999999998" as="sourcePoint" />
            <mxPoint x="4719" y="1815.4999999999998" as="targetPoint" />
          </mxGeometry>
        </mxCell>
        <mxCell id="izovBkt0zpYJHhvqd-Qn-64" value="card-place-locator&lt;div&gt;&amp;lt;&amp;lt;microservicio&amp;gt;&amp;gt;&lt;/div&gt;" style="shape=umlLifeline;perimeter=lifelinePerimeter;whiteSpace=wrap;html=1;container=1;dropTarget=0;collapsible=0;recursiveResize=0;outlineConnect=0;portConstraint=eastwest;newEdgeStyle={&quot;curved&quot;:0,&quot;rounded&quot;:0};" parent="u3XzuJ6JBvZbT9BNvgNG-1" vertex="1">
          <mxGeometry x="3973" y="1362.88" width="140" height="997.12" as="geometry" />
        </mxCell>
        <mxCell id="izovBkt0zpYJHhvqd-Qn-65" value="" style="html=1;points=[[0,0,0,0,5],[0,1,0,0,-5],[1,0,0,0,5],[1,1,0,0,-5]];perimeter=orthogonalPerimeter;outlineConnect=0;targetShapes=umlLifeline;portConstraint=eastwest;newEdgeStyle={&quot;curved&quot;:0,&quot;rounded&quot;:0};" parent="izovBkt0zpYJHhvqd-Qn-64" vertex="1">
          <mxGeometry x="65" y="204" width="10" height="43" as="geometry" />
        </mxCell>
        <mxCell id="izovBkt0zpYJHhvqd-Qn-66" value="&lt;div style=&quot;&quot;&gt;&lt;br&gt;&lt;/div&gt;" style="html=1;verticalAlign=bottom;endArrow=block;curved=0;rounded=0;fontSize=11;align=center;" parent="u3XzuJ6JBvZbT9BNvgNG-1" edge="1">
          <mxGeometry x="0.0046" width="80" relative="1" as="geometry">
            <mxPoint x="3836" y="1572.88" as="sourcePoint" />
            <mxPoint x="4038" y="1572.8799999999999" as="targetPoint" />
            <mxPoint as="offset" />
          </mxGeometry>
        </mxCell>
        <mxCell id="izovBkt0zpYJHhvqd-Qn-67" value="return" style="html=1;verticalAlign=bottom;endArrow=block;curved=0;rounded=0;" parent="u3XzuJ6JBvZbT9BNvgNG-1" edge="1">
          <mxGeometry x="0.0046" width="80" relative="1" as="geometry">
            <mxPoint x="4038" y="1601.3799999999999" as="sourcePoint" />
            <mxPoint x="3836" y="1601.38" as="targetPoint" />
            <mxPoint as="offset" />
          </mxGeometry>
        </mxCell>
        <mxCell id="izovBkt0zpYJHhvqd-Qn-68" value="&lt;div style=&quot;forced-color-adjust: none; color: rgb(0, 0, 0); font-family: Helvetica; font-size: 11px; font-style: normal; font-variant-ligatures: normal; font-variant-caps: normal; font-weight: 400; letter-spacing: normal; orphans: 2; text-indent: 0px; text-transform: none; widows: 2; word-spacing: 0px; -webkit-text-stroke-width: 0px; white-space: nowrap; text-decoration-thickness: initial; text-decoration-style: initial; text-decoration-color: initial;&quot;&gt;&lt;span style=&quot;forced-color-adjust: none; text-wrap: wrap; background-color: rgb(251, 251, 251);&quot;&gt;consulta configuracion&amp;nbsp;&lt;/span&gt;&lt;span style=&quot;background-color: light-dark(rgb(251, 251, 251), rgb(251, 251, 251)); color: light-dark(rgb(0, 0, 0), rgb(255, 255, 255)); text-wrap: wrap;&quot;&gt;cardId&lt;/span&gt;&lt;/div&gt;" style="text;whiteSpace=wrap;html=1;align=center;" parent="u3XzuJ6JBvZbT9BNvgNG-1" vertex="1">
          <mxGeometry x="3836" y="1550" width="206" height="28" as="geometry" />
        </mxCell>
        <mxCell id="izovBkt0zpYJHhvqd-Qn-75" value="return" style="html=1;verticalAlign=bottom;endArrow=open;dashed=1;endSize=8;curved=0;rounded=0;" parent="u3XzuJ6JBvZbT9BNvgNG-1" edge="1">
          <mxGeometry relative="1" as="geometry">
            <mxPoint x="5125" y="1989.25" as="sourcePoint" />
            <mxPoint x="4906" y="1989.25" as="targetPoint" />
          </mxGeometry>
        </mxCell>
        <mxCell id="izovBkt0zpYJHhvqd-Qn-83" value="Launcher&lt;div&gt;&amp;lt;&amp;lt;microservicio&amp;gt;&amp;gt;&lt;/div&gt;" style="shape=umlLifeline;perimeter=lifelinePerimeter;whiteSpace=wrap;html=1;container=1;dropTarget=0;collapsible=0;recursiveResize=0;outlineConnect=0;portConstraint=eastwest;newEdgeStyle={&quot;curved&quot;:0,&quot;rounded&quot;:0};" parent="u3XzuJ6JBvZbT9BNvgNG-1" vertex="1">
          <mxGeometry x="3560" y="1360" width="140" height="1000" as="geometry" />
        </mxCell>
        <mxCell id="izovBkt0zpYJHhvqd-Qn-84" value="" style="html=1;points=[[0,0,0,0,5],[0,1,0,0,-5],[1,0,0,0,5],[1,1,0,0,-5]];perimeter=orthogonalPerimeter;outlineConnect=0;targetShapes=umlLifeline;portConstraint=eastwest;newEdgeStyle={&quot;curved&quot;:0,&quot;rounded&quot;:0};" parent="izovBkt0zpYJHhvqd-Qn-83" vertex="1">
          <mxGeometry x="65" y="95" width="10" height="35" as="geometry" />
        </mxCell>
        <mxCell id="izovBkt0zpYJHhvqd-Qn-85" value="" style="html=1;points=[[0,0,0,0,5],[0,1,0,0,-5],[1,0,0,0,5],[1,1,0,0,-5]];perimeter=orthogonalPerimeter;outlineConnect=0;targetShapes=umlLifeline;portConstraint=eastwest;newEdgeStyle={&quot;curved&quot;:0,&quot;rounded&quot;:0};" parent="izovBkt0zpYJHhvqd-Qn-83" vertex="1">
          <mxGeometry x="65" y="895.25" width="10" height="68.75" as="geometry" />
        </mxCell>
        <mxCell id="izovBkt0zpYJHhvqd-Qn-86" value="publicar mensaje&amp;nbsp;&lt;div&gt;(&lt;font&gt;LMV1&amp;nbsp;&lt;/font&gt;trx)&lt;/div&gt;" style="html=1;verticalAlign=bottom;endArrow=block;curved=0;rounded=0;" parent="u3XzuJ6JBvZbT9BNvgNG-1" edge="1">
          <mxGeometry x="0.0046" width="80" relative="1" as="geometry">
            <mxPoint x="3635" y="1476.5" as="sourcePoint" />
            <mxPoint x="4196" y="1476.5" as="targetPoint" />
            <mxPoint as="offset" />
          </mxGeometry>
        </mxCell>
        <mxCell id="izovBkt0zpYJHhvqd-Qn-87" value="leer mensaje (LMV1 trx)" style="endArrow=classic;html=1;rounded=0;" parent="u3XzuJ6JBvZbT9BNvgNG-1" edge="1">
          <mxGeometry width="50" height="50" relative="1" as="geometry">
            <mxPoint x="3836" y="1501.25" as="sourcePoint" />
            <mxPoint x="4196" y="1501.25" as="targetPoint" />
          </mxGeometry>
        </mxCell>
        <mxCell id="izovBkt0zpYJHhvqd-Qn-88" value="Publicar mensaje&amp;nbsp;&lt;div&gt;respuesta&lt;/div&gt;&lt;div&gt;&lt;span style=&quot;background-color: initial; color: light-dark(rgb(0, 0, 0), rgb(255, 255, 255));&quot;&gt;(&lt;/span&gt;&lt;span style=&quot;background-color: rgb(255, 255, 255); color: rgb(255, 0, 0);&quot;&gt;&lt;font style=&quot;color: rgb(0, 0, 0);&quot;&gt;LMV1&lt;/font&gt;&lt;/span&gt;&lt;span style=&quot;color: rgb(255, 0, 0); background-color: rgb(255, 255, 255);&quot;&gt;&amp;nbsp;&lt;/span&gt;&lt;span style=&quot;background-color: initial; color: light-dark(rgb(0, 0, 0), rgb(255, 255, 255));&quot;&gt;trx)&lt;/span&gt;&lt;/div&gt;" style="html=1;verticalAlign=bottom;endArrow=block;curved=0;rounded=0;labelBackgroundColor=none;" parent="u3XzuJ6JBvZbT9BNvgNG-1" source="izovBkt0zpYJHhvqd-Qn-85" edge="1">
          <mxGeometry x="0.0046" width="80" relative="1" as="geometry">
            <mxPoint x="3348" y="2252.5" as="sourcePoint" />
            <mxPoint x="3487" y="2289.625" as="targetPoint" />
            <mxPoint as="offset" />
          </mxGeometry>
        </mxCell>
        <mxCell id="izovBkt0zpYJHhvqd-Qn-8" value="" style="html=1;points=[[0,0,0,0,5],[0,1,0,0,-5],[1,0,0,0,5],[1,1,0,0,-5]];perimeter=orthogonalPerimeter;outlineConnect=0;targetShapes=umlLifeline;portConstraint=eastwest;newEdgeStyle={&quot;curved&quot;:0,&quot;rounded&quot;:0};" parent="u3XzuJ6JBvZbT9BNvgNG-1" vertex="1">
          <mxGeometry x="5578" y="1830.25" width="10" height="33.25" as="geometry" />
        </mxCell>
        <mxCell id="izovBkt0zpYJHhvqd-Qn-40" value="&lt;span style=&quot;color: light-dark(rgb(0, 0, 0), rgb(255, 255, 255)); font-weight: 400; text-wrap-mode: wrap; background-color: transparent; font-size: 12px;&quot;&gt;(GET)&amp;nbsp;&lt;/span&gt;&lt;span style=&quot;font-weight: 400; text-align: left; text-wrap-mode: wrap; background-color: transparent; font-size: 12px;&quot;&gt;/restrictions_management/v1/{card_id}/restriction&lt;/span&gt;" style="html=1;verticalAlign=bottom;endArrow=block;curved=0;rounded=0;align=center;spacing=2;fontStyle=1" parent="u3XzuJ6JBvZbT9BNvgNG-1" edge="1">
          <mxGeometry x="0.0003" width="80" relative="1" as="geometry">
            <mxPoint x="5135" y="1837.5" as="sourcePoint" />
            <mxPoint x="5578" y="1837.5" as="targetPoint" />
            <mxPoint as="offset" />
          </mxGeometry>
        </mxCell>
        <mxCell id="izovBkt0zpYJHhvqd-Qn-49" value="return" style="html=1;verticalAlign=bottom;endArrow=open;dashed=1;endSize=8;curved=0;rounded=0;" parent="u3XzuJ6JBvZbT9BNvgNG-1" edge="1">
          <mxGeometry relative="1" as="geometry">
            <mxPoint x="5578" y="1857.8749999999998" as="sourcePoint" />
            <mxPoint x="5135" y="1857.8749999999998" as="targetPoint" />
          </mxGeometry>
        </mxCell>
        <mxCell id="izovBkt0zpYJHhvqd-Qn-78" value="+getRestrictionResponse(QueryResponse response): &#xa;LimitsDataModel" style="html=1;verticalAlign=bottom;endArrow=block;curved=0;rounded=0;" parent="u3XzuJ6JBvZbT9BNvgNG-1" target="izovBkt0zpYJHhvqd-Qn-43" edge="1">
          <mxGeometry width="80" relative="1" as="geometry">
            <mxPoint x="5137" y="1906.25" as="sourcePoint" />
            <mxPoint x="5343" y="1906.25" as="targetPoint" />
            <mxPoint as="offset" />
          </mxGeometry>
        </mxCell>
        <mxCell id="izovBkt0zpYJHhvqd-Qn-81" value="return" style="html=1;verticalAlign=bottom;endArrow=open;dashed=1;endSize=8;curved=0;rounded=0;" parent="u3XzuJ6JBvZbT9BNvgNG-1" edge="1">
          <mxGeometry relative="1" as="geometry">
            <mxPoint x="5417" y="1967.75" as="sourcePoint" />
            <mxPoint x="5135" y="1967.75" as="targetPoint" />
          </mxGeometry>
        </mxCell>
        <mxCell id="-hQrHwW0EqyMCsEMspi0-1" value="Actualizar información" style="html=1;verticalAlign=bottom;endArrow=block;curved=0;rounded=0;" edge="1" parent="u3XzuJ6JBvZbT9BNvgNG-1" source="izovBkt0zpYJHhvqd-Qn-43">
          <mxGeometry relative="1" as="geometry">
            <mxPoint x="4905" y="1641.4999999999998" as="sourcePoint" />
            <mxPoint x="4719" y="1941" as="targetPoint" />
          </mxGeometry>
        </mxCell>
        <mxCell id="-hQrHwW0EqyMCsEMspi0-2" value="DeviceLifeCycleClient" style="shape=umlLifeline;perimeter=lifelinePerimeter;whiteSpace=wrap;html=1;container=1;dropTarget=0;collapsible=0;recursiveResize=0;outlineConnect=0;portConstraint=eastwest;newEdgeStyle={&quot;curved&quot;:0,&quot;rounded&quot;:0};" vertex="1" parent="u3XzuJ6JBvZbT9BNvgNG-1">
          <mxGeometry x="5670" y="1361.5" width="130" height="998.5" as="geometry" />
        </mxCell>
        <mxCell id="-hQrHwW0EqyMCsEMspi0-3" value="" style="html=1;points=[[0,0,0,0,5],[0,1,0,0,-5],[1,0,0,0,5],[1,1,0,0,-5]];perimeter=orthogonalPerimeter;outlineConnect=0;targetShapes=umlLifeline;portConstraint=eastwest;newEdgeStyle={&quot;curved&quot;:0,&quot;rounded&quot;:0};" vertex="1" parent="-hQrHwW0EqyMCsEMspi0-2">
          <mxGeometry x="60" y="658.5" width="10" height="151.5" as="geometry" />
        </mxCell>
        <mxCell id="hPC1QRTGoRxcMQA01Rq8-4" value="(GET) /life-cycle/v4/devices/details" style="html=1;verticalAlign=bottom;endArrow=block;curved=0;rounded=0;align=center;spacing=2;" edge="1" parent="-hQrHwW0EqyMCsEMspi0-2" target="hPC1QRTGoRxcMQA01Rq8-3">
          <mxGeometry x="0.0003" width="80" relative="1" as="geometry">
            <mxPoint x="70" y="689.75" as="sourcePoint" />
            <mxPoint x="513" y="689.75" as="targetPoint" />
            <mxPoint as="offset" />
          </mxGeometry>
        </mxCell>
        <mxCell id="hPC1QRTGoRxcMQA01Rq8-5" value="return" style="html=1;verticalAlign=bottom;endArrow=open;dashed=1;endSize=8;curved=0;rounded=0;" edge="1" parent="-hQrHwW0EqyMCsEMspi0-2" source="hPC1QRTGoRxcMQA01Rq8-3">
          <mxGeometry relative="1" as="geometry">
            <mxPoint x="513" y="710.125" as="sourcePoint" />
            <mxPoint x="70" y="710.125" as="targetPoint" />
          </mxGeometry>
        </mxCell>
        <mxCell id="hPC1QRTGoRxcMQA01Rq8-6" value="getDeviceDetailedLast4DigitsCardResponse(&amp;nbsp;&lt;div&gt;GetDeviceDetailedLast4DigitsCardResponseDto response):&amp;nbsp;&lt;br&gt;LimitsDataModelDto&lt;/div&gt;" style="html=1;verticalAlign=bottom;endArrow=block;curved=0;rounded=0;" edge="1" parent="-hQrHwW0EqyMCsEMspi0-2" target="hPC1QRTGoRxcMQA01Rq8-2">
          <mxGeometry width="80" relative="1" as="geometry">
            <mxPoint x="72" y="758.5" as="sourcePoint" />
            <mxPoint x="278" y="758.5" as="targetPoint" />
            <mxPoint as="offset" />
          </mxGeometry>
        </mxCell>
        <mxCell id="-hQrHwW0EqyMCsEMspi0-4" value="getDevicesDetails(String deviceId, Boolean....)" style="html=1;verticalAlign=bottom;endArrow=block;curved=0;rounded=0;align=center;" edge="1" parent="u3XzuJ6JBvZbT9BNvgNG-1" target="-hQrHwW0EqyMCsEMspi0-3">
          <mxGeometry x="0.001" width="80" relative="1" as="geometry">
            <mxPoint x="4905" y="2037.5" as="sourcePoint" />
            <mxPoint x="5745" y="2037.5" as="targetPoint" />
            <mxPoint as="offset" />
          </mxGeometry>
        </mxCell>
        <mxCell id="Bi0E-1LqmNLRAD0aCNaK-0" value="DeviceLifeCycleTranslator" style="shape=umlLifeline;perimeter=lifelinePerimeter;whiteSpace=wrap;html=1;container=1;dropTarget=0;collapsible=0;recursiveResize=0;outlineConnect=0;portConstraint=eastwest;newEdgeStyle={&quot;curved&quot;:0,&quot;rounded&quot;:0};" vertex="1" parent="u3XzuJ6JBvZbT9BNvgNG-1">
          <mxGeometry x="5840" y="1360.75" width="153" height="999.25" as="geometry" />
        </mxCell>
        <mxCell id="hPC1QRTGoRxcMQA01Rq8-2" value="" style="html=1;points=[[0,0,0,0,5],[0,1,0,0,-5],[1,0,0,0,5],[1,1,0,0,-5]];perimeter=orthogonalPerimeter;outlineConnect=0;targetShapes=umlLifeline;portConstraint=eastwest;newEdgeStyle={&quot;curved&quot;:0,&quot;rounded&quot;:0};" vertex="1" parent="Bi0E-1LqmNLRAD0aCNaK-0">
          <mxGeometry x="71.5" y="755" width="10" height="45" as="geometry" />
        </mxCell>
        <mxCell id="hPC1QRTGoRxcMQA01Rq8-0" value="&lt;div&gt;&lt;span style=&quot;font-weight: 400;&quot;&gt;Device Life Cycle&lt;/span&gt;&lt;/div&gt;&lt;span style=&quot;font-weight: normal;&quot;&gt;&amp;lt;&amp;lt;API PLARD&amp;gt;&amp;gt;&lt;/span&gt;" style="shape=umlLifeline;perimeter=lifelinePerimeter;whiteSpace=wrap;html=1;container=1;dropTarget=0;collapsible=0;recursiveResize=0;outlineConnect=0;portConstraint=eastwest;newEdgeStyle={&quot;curved&quot;:0,&quot;rounded&quot;:0};fontStyle=1;fillColor=#dae8fc;strokeColor=#6c8ebf;" vertex="1" parent="u3XzuJ6JBvZbT9BNvgNG-1">
          <mxGeometry x="6040" y="1358.5" width="100" height="1001.5" as="geometry" />
        </mxCell>
        <mxCell id="hPC1QRTGoRxcMQA01Rq8-3" value="" style="html=1;points=[[0,0,0,0,5],[0,1,0,0,-5],[1,0,0,0,5],[1,1,0,0,-5]];perimeter=orthogonalPerimeter;outlineConnect=0;targetShapes=umlLifeline;portConstraint=eastwest;newEdgeStyle={&quot;curved&quot;:0,&quot;rounded&quot;:0};" vertex="1" parent="hPC1QRTGoRxcMQA01Rq8-0">
          <mxGeometry x="45" y="685.5" width="10" height="33.25" as="geometry" />
        </mxCell>
        <mxCell id="hPC1QRTGoRxcMQA01Rq8-7" value="return" style="html=1;verticalAlign=bottom;endArrow=open;dashed=1;endSize=8;curved=0;rounded=0;" edge="1" parent="u3XzuJ6JBvZbT9BNvgNG-1">
          <mxGeometry relative="1" as="geometry">
            <mxPoint x="5911.5" y="2150.75" as="sourcePoint" />
            <mxPoint x="5740" y="2150.75" as="targetPoint" />
          </mxGeometry>
        </mxCell>
        <mxCell id="_oZtcexojmGPg74Z60Uz-0" value="Actualizar información" style="html=1;verticalAlign=bottom;endArrow=block;curved=0;rounded=0;" edge="1" parent="u3XzuJ6JBvZbT9BNvgNG-1">
          <mxGeometry relative="1" as="geometry">
            <mxPoint x="5911.5" y="2132.25" as="sourcePoint" />
            <mxPoint x="4719" y="2132.25" as="targetPoint" />
          </mxGeometry>
        </mxCell>
      </root>
    </mxGraphModel>
  </diagram>
  <diagram id="jbITYMCw_M0K05CnKCsL" name="Seq PistaAuditoria">
    <mxGraphModel dx="-2428" dy="-321" grid="1" gridSize="10" guides="1" tooltips="1" connect="1" arrows="1" fold="1" page="1" pageScale="1" pageWidth="1100" pageHeight="850" math="0" shadow="0">
      <root>
        <mxCell id="0" />
        <mxCell id="1" parent="0" />
        <mxCell id="Bgk0NKFnX23tzV5PXrrx-1" value="EventKafkaPublisher" style="shape=umlLifeline;perimeter=lifelinePerimeter;whiteSpace=wrap;html=1;container=1;dropTarget=0;collapsible=0;recursiveResize=0;outlineConnect=0;portConstraint=eastwest;newEdgeStyle={&quot;curved&quot;:0,&quot;rounded&quot;:0};fontStyle=0" parent="1" vertex="1">
          <mxGeometry x="3450" y="880" width="130" height="251" as="geometry" />
        </mxCell>
        <mxCell id="Bgk0NKFnX23tzV5PXrrx-2" value="" style="html=1;points=[[0,0,0,0,5],[0,1,0,0,-5],[1,0,0,0,5],[1,1,0,0,-5]];perimeter=orthogonalPerimeter;outlineConnect=0;targetShapes=umlLifeline;portConstraint=eastwest;newEdgeStyle={&quot;curved&quot;:0,&quot;rounded&quot;:0};" parent="Bgk0NKFnX23tzV5PXrrx-1" vertex="1">
          <mxGeometry x="60" y="60" width="10" height="160" as="geometry" />
        </mxCell>
        <mxCell id="Bgk0NKFnX23tzV5PXrrx-3" value="sendAudit(limitsDataModel)" style="html=1;verticalAlign=bottom;endArrow=block;curved=0;rounded=0;" parent="1" target="Bgk0NKFnX23tzV5PXrrx-2" edge="1">
          <mxGeometry width="80" relative="1" as="geometry">
            <mxPoint x="3330" y="951" as="sourcePoint" />
            <mxPoint x="3520" y="951" as="targetPoint" />
            <mxPoint as="offset" />
          </mxGeometry>
        </mxCell>
        <mxCell id="Bgk0NKFnX23tzV5PXrrx-4" value="&lt;div&gt;&lt;span style=&quot;font-weight: 400;&quot;&gt;Kafka&lt;/span&gt;&lt;/div&gt;" style="shape=umlLifeline;perimeter=lifelinePerimeter;whiteSpace=wrap;html=1;container=1;dropTarget=0;collapsible=0;recursiveResize=0;outlineConnect=0;portConstraint=eastwest;newEdgeStyle={&quot;curved&quot;:0,&quot;rounded&quot;:0};fontStyle=1;fillColor=#dae8fc;strokeColor=#6c8ebf;" parent="1" vertex="1">
          <mxGeometry x="3820" y="880" width="100" height="251" as="geometry" />
        </mxCell>
        <mxCell id="Bgk0NKFnX23tzV5PXrrx-5" value="" style="html=1;points=[[0,0,0,0,5],[0,1,0,0,-5],[1,0,0,0,5],[1,1,0,0,-5]];perimeter=orthogonalPerimeter;outlineConnect=0;targetShapes=umlLifeline;portConstraint=eastwest;newEdgeStyle={&quot;curved&quot;:0,&quot;rounded&quot;:0};" parent="Bgk0NKFnX23tzV5PXrrx-4" vertex="1">
          <mxGeometry x="45" y="151" width="10" height="44.25" as="geometry" />
        </mxCell>
        <mxCell id="Bgk0NKFnX23tzV5PXrrx-6" value="&lt;span style=&quot;font-size: 11px; text-align: left; text-wrap: wrap; background-color: rgb(251, 251, 251);&quot;&gt;auditoriaToEvent(&lt;span style=&quot;text-align: center; text-wrap: nowrap; background-color: rgb(255, 255, 255);&quot;&gt;limitsDataModel&lt;/span&gt;)&lt;/span&gt;" style="html=1;verticalAlign=bottom;endArrow=block;curved=0;rounded=0;fontSize=11;" parent="1" target="Bgk0NKFnX23tzV5PXrrx-9" edge="1">
          <mxGeometry x="-0.0027" width="80" relative="1" as="geometry">
            <mxPoint x="3520" y="988" as="sourcePoint" />
            <mxPoint x="3680" y="988" as="targetPoint" />
            <mxPoint as="offset" />
          </mxGeometry>
        </mxCell>
        <mxCell id="Bgk0NKFnX23tzV5PXrrx-7" value="return" style="html=1;verticalAlign=bottom;endArrow=open;dashed=1;endSize=8;curved=0;rounded=0;" parent="1" edge="1">
          <mxGeometry relative="1" as="geometry">
            <mxPoint x="3865" y="1064.125" as="sourcePoint" />
            <mxPoint x="3520" y="1064.125" as="targetPoint" />
          </mxGeometry>
        </mxCell>
        <mxCell id="Bgk0NKFnX23tzV5PXrrx-8" value="EventMessageTranslator" style="shape=umlLifeline;perimeter=lifelinePerimeter;whiteSpace=wrap;html=1;container=1;dropTarget=0;collapsible=0;recursiveResize=0;outlineConnect=0;portConstraint=eastwest;newEdgeStyle={&quot;curved&quot;:0,&quot;rounded&quot;:0};fontStyle=0" parent="1" vertex="1">
          <mxGeometry x="3640" y="880" width="140" height="251" as="geometry" />
        </mxCell>
        <mxCell id="Bgk0NKFnX23tzV5PXrrx-9" value="" style="html=1;points=[[0,0,0,0,5],[0,1,0,0,-5],[1,0,0,0,5],[1,1,0,0,-5]];perimeter=orthogonalPerimeter;outlineConnect=0;targetShapes=umlLifeline;portConstraint=eastwest;newEdgeStyle={&quot;curved&quot;:0,&quot;rounded&quot;:0};" parent="Bgk0NKFnX23tzV5PXrrx-8" vertex="1">
          <mxGeometry x="65" y="100" width="10" height="40" as="geometry" />
        </mxCell>
        <mxCell id="Bgk0NKFnX23tzV5PXrrx-10" value="publicar evento" style="html=1;verticalAlign=bottom;endArrow=block;curved=0;rounded=0;" parent="1" edge="1">
          <mxGeometry x="-0.0027" width="80" relative="1" as="geometry">
            <mxPoint x="3520" y="1044" as="sourcePoint" />
            <mxPoint x="3865" y="1044" as="targetPoint" />
            <mxPoint as="offset" />
          </mxGeometry>
        </mxCell>
        <mxCell id="Bgk0NKFnX23tzV5PXrrx-11" value="return string" style="html=1;verticalAlign=bottom;endArrow=open;dashed=1;endSize=8;curved=0;rounded=0;" parent="1" source="Bgk0NKFnX23tzV5PXrrx-9" edge="1">
          <mxGeometry relative="1" as="geometry">
            <mxPoint x="3800" y="1007.75" as="sourcePoint" />
            <mxPoint x="3520" y="1007.75" as="targetPoint" />
          </mxGeometry>
        </mxCell>
        <mxCell id="Bgk0NKFnX23tzV5PXrrx-12" value="return" style="html=1;verticalAlign=bottom;endArrow=open;dashed=1;endSize=8;curved=0;rounded=0;" parent="1" source="Bgk0NKFnX23tzV5PXrrx-2" edge="1">
          <mxGeometry relative="1" as="geometry">
            <mxPoint x="3510" y="1224" as="sourcePoint" />
            <mxPoint x="3330" y="1091" as="targetPoint" />
          </mxGeometry>
        </mxCell>
      </root>
    </mxGraphModel>
  </diagram>
  <diagram id="fyVMVKsddvUHg-xB2oIw" name="UTEST">
    <mxGraphModel dx="1429" dy="904" grid="1" gridSize="10" guides="1" tooltips="1" connect="1" arrows="1" fold="1" page="1" pageScale="1" pageWidth="827" pageHeight="1169" math="0" shadow="0">
      <root>
        <mxCell id="0" />
        <mxCell id="1" parent="0" />
        <mxCell id="sV2rYLLxvC_IdfUkON5o-1" value="&lt;h1 style=&quot;margin-top: 0px;&quot;&gt;UTEST&lt;/h1&gt;&lt;p&gt;LMV1&lt;/p&gt;&lt;p&gt;&lt;br&gt;&lt;/p&gt;&lt;p&gt;Consulta limites de tarjeta&lt;/p&gt;&lt;p&gt;&lt;br&gt;&lt;/p&gt;&lt;p&gt;consulta configuracion cardId&lt;/p&gt;&lt;p&gt;&lt;br&gt;&lt;/p&gt;&lt;p&gt;&amp;lt;&amp;lt;API PLARD&amp;gt;&amp;gt; autorizador-domain-api (GET) /restrictions_management/v1/{card_id}/restriction&lt;/p&gt;&lt;p&gt;&lt;br&gt;&lt;/p&gt;&lt;p&gt;&amp;lt;&amp;lt;API PLARD&amp;gt;&amp;gt; Device Life Cycle (GET) /life-cycle/v4/devices/details&lt;/p&gt;&lt;p&gt;&lt;br&gt;&lt;/p&gt;&lt;p&gt;Validación exitosa de generación de trama PS7&amp;nbsp;&lt;/p&gt;&lt;p&gt;&lt;br&gt;&lt;/p&gt;&lt;p&gt;Validación exitosa de publicación de trama PS7&lt;/p&gt;" style="text;html=1;whiteSpace=wrap;overflow=hidden;rounded=0;" vertex="1" parent="1">
          <mxGeometry x="30" y="30" width="610" height="480" as="geometry" />
        </mxCell>
      </root>
    </mxGraphModel>
  </diagram>
</mxfile>
